<svg width="150" height="100" viewBox="0 0 150 100" fill="none" xmlns="http://www.w3.org/2000/svg">
<g clip-path="url(#clip0_11415_25667)">
<path d="M140.578 55.5165C140.356 56.4702 139.371 60.3258 137.078 60.8737C135.971 61.1375 130.439 61.9492 124.022 62.7C124.706 61.2795 125.089 59.6967 125.089 58.0124C125.089 52.0261 120.281 47.1762 114.347 47.1762C108.413 47.1762 103.605 52.0261 103.605 58.0124C103.605 60.3664 104.349 62.5377 105.596 64.3031C105.234 64.3031 104.872 64.3234 104.55 64.3234C99.1794 64.3234 70.2126 64.7496 44.9673 64.4655C46.2949 62.6594 47.0794 60.4273 47.0794 58.0124C47.0794 52.0261 42.2718 47.1762 36.3376 47.1762C30.4034 47.1762 25.5958 52.0261 25.5958 58.0124C25.5958 60.2649 26.2797 62.3551 27.4464 64.0799C20.1645 63.8364 14.0493 63.4711 10.1468 62.9638C9.24159 62.8015 9.56344 61.7666 9.94564 61.5028C10.3278 61.239 11.2532 60.5287 11.0922 60.0214C10.7503 58.9256 8.85939 54.8671 9.18124 54.1568C9.5031 53.4466 11.394 53.7916 11.4342 52.9596C11.4744 52.1276 9.86518 49.6113 10.187 48.8402C10.529 48.0691 15.739 40.8449 48.5077 40.4391C48.5077 40.4391 63.7957 28.5273 78.4199 28.1215C93.0441 27.7156 114.427 33.6005 127.905 38.4707C127.905 38.4707 130.158 38.8156 131.345 38.5316C132.531 38.2677 134.704 37.5372 135.509 38.2475C136.313 38.9374 135.951 40.2767 135.75 41.6363C136.092 42.5089 136.917 43.9294 137.701 44.8425C138.486 45.7354 140.155 46.8109 140.216 47.4603C140.256 48.1097 139.29 52.0058 139.512 53.2031C139.673 54.3801 140.799 54.5627 140.578 55.5165Z" fill="#CACFD8" stroke="#1B1A1E" stroke-width="0.5" stroke-miterlimit="10"/>
<mask id="mask0_11415_25667" style="mask-type:luminance" maskUnits="userSpaceOnUse" x="9" y="28" width="132" height="37">
<path d="M140.578 55.5165C140.356 56.4702 139.371 60.3258 137.078 60.8737C135.971 61.1375 130.439 61.9492 124.022 62.7C124.706 61.2795 125.089 59.6967 125.089 58.0124C125.089 52.0261 120.281 47.1762 114.347 47.1762C108.413 47.1762 103.605 52.0261 103.605 58.0124C103.605 60.3664 104.349 62.5377 105.596 64.3031C105.234 64.3031 104.872 64.3234 104.55 64.3234C99.1794 64.3234 70.2126 64.7496 44.9673 64.4655C46.2949 62.6594 47.0794 60.4273 47.0794 58.0124C47.0794 52.0261 42.2718 47.1762 36.3376 47.1762C30.4034 47.1762 25.5958 52.0261 25.5958 58.0124C25.5958 60.2649 26.2797 62.3551 27.4464 64.0799C20.1645 63.8364 14.0493 63.4711 10.1468 62.9638C9.24159 62.8015 9.56344 61.7666 9.94564 61.5028C10.3278 61.239 11.2532 60.5287 11.0922 60.0214C10.7503 58.9256 8.85939 54.8671 9.18124 54.1568C9.5031 53.4466 11.394 53.7916 11.4342 52.9596C11.4744 52.1276 9.86518 49.6113 10.187 48.8402C10.529 48.0691 15.739 40.8449 48.5077 40.4391C48.5077 40.4391 63.7957 28.5273 78.4199 28.1215C93.0441 27.7156 114.427 33.6005 127.905 38.4707C127.905 38.4707 130.158 38.8156 131.345 38.5316C132.531 38.2677 134.704 37.5372 135.509 38.2475C136.313 38.9374 135.951 40.2767 135.75 41.6363C136.092 42.5089 136.917 43.9294 137.701 44.8425C138.486 45.7354 140.155 46.8109 140.216 47.4603C140.256 48.1097 139.29 52.0058 139.512 53.2031C139.673 54.3801 140.799 54.5627 140.578 55.5165Z" fill="white"/>
</mask>
<g mask="url(#mask0_11415_25667)">
<path d="M48.3673 40.2154C48.4277 40.3372 48.5282 40.4183 48.669 40.4183C49.6346 40.4386 53.5371 40.743 54.5831 40.7836C54.744 40.7836 54.9049 40.743 55.0256 40.6619C56.132 39.911 61.3822 36.2989 62.4283 35.6902C63.3737 35.1423 67.6986 32.8289 69.3481 31.9766C69.5291 31.8752 69.4688 31.5911 69.2676 31.5911L62.6093 31.2461C62.6093 31.2461 51.4853 37.4556 50.218 37.4962C48.9909 37.5165 47.6029 38.4297 48.3673 40.2154Z" fill="#1B1A1E" stroke="#1B1A1E" stroke-width="0.5" stroke-miterlimit="10"/>
</g>
<mask id="mask1_11415_25667" style="mask-type:luminance" maskUnits="userSpaceOnUse" x="9" y="28" width="132" height="37">
<path d="M140.578 55.5165C140.356 56.4702 139.371 60.3258 137.078 60.8737C135.971 61.1375 130.439 61.9492 124.022 62.7C124.706 61.2795 125.089 59.6967 125.089 58.0124C125.089 52.0261 120.281 47.1762 114.347 47.1762C108.413 47.1762 103.605 52.0261 103.605 58.0124C103.605 60.3664 104.349 62.5377 105.596 64.3031C105.234 64.3031 104.872 64.3234 104.55 64.3234C99.1794 64.3234 70.2126 64.7496 44.9673 64.4655C46.2949 62.6594 47.0794 60.4273 47.0794 58.0124C47.0794 52.0261 42.2718 47.1762 36.3376 47.1762C30.4034 47.1762 25.5958 52.0261 25.5958 58.0124C25.5958 60.2649 26.2797 62.3551 27.4464 64.0799C20.1645 63.8364 14.0493 63.4711 10.1468 62.9638C9.24159 62.8015 9.56344 61.7666 9.94564 61.5028C10.3278 61.239 11.2532 60.5287 11.0922 60.0214C10.7503 58.9256 8.85939 54.8671 9.18124 54.1568C9.5031 53.4466 11.394 53.7916 11.4342 52.9596C11.4744 52.1276 9.86518 49.6113 10.187 48.8402C10.529 48.0691 15.739 40.8449 48.5077 40.4391C48.5077 40.4391 63.7957 28.5273 78.4199 28.1215C93.0441 27.7156 114.427 33.6005 127.905 38.4707C127.905 38.4707 130.158 38.8156 131.345 38.5316C132.531 38.2677 134.704 37.5372 135.509 38.2475C136.313 38.9374 135.951 40.2767 135.75 41.6363C136.092 42.5089 136.917 43.9294 137.701 44.8425C138.486 45.7354 140.155 46.8109 140.216 47.4603C140.256 48.1097 139.29 52.0058 139.512 53.2031C139.673 54.3801 140.799 54.5627 140.578 55.5165Z" fill="white"/>
</mask>
<g mask="url(#mask1_11415_25667)">
<path d="M45.6932 59.5147C46.2967 59.4539 82.0023 58.3581 83.4707 58.2972C84.9191 58.2363 106.322 57.4043 106.322 57.4043L109.48 70.8786C109.48 70.8786 40.2016 69.8639 40.4028 69.4581C40.6039 69.0522 45.6932 59.5147 45.6932 59.5147Z" fill="#99A0AE"/>
</g>
<mask id="mask2_11415_25667" style="mask-type:luminance" maskUnits="userSpaceOnUse" x="9" y="28" width="132" height="37">
<path d="M140.578 55.5165C140.356 56.4702 139.371 60.3258 137.078 60.8737C135.971 61.1375 130.439 61.9492 124.022 62.7C124.706 61.2795 125.089 59.6967 125.089 58.0124C125.089 52.0261 120.281 47.1762 114.347 47.1762C108.413 47.1762 103.605 52.0261 103.605 58.0124C103.605 60.3664 104.349 62.5377 105.596 64.3031C105.234 64.3031 104.872 64.3234 104.55 64.3234C99.1794 64.3234 70.2126 64.7496 44.9673 64.4655C46.2949 62.6594 47.0794 60.4273 47.0794 58.0124C47.0794 52.0261 42.2718 47.1762 36.3376 47.1762C30.4034 47.1762 25.5958 52.0261 25.5958 58.0124C25.5958 60.2649 26.2797 62.3551 27.4464 64.0799C20.1645 63.8364 14.0493 63.4711 10.1468 62.9638C9.24159 62.8015 9.56344 61.7666 9.94564 61.5028C10.3278 61.239 11.2532 60.5287 11.0922 60.0214C10.7503 58.9256 8.85939 54.8671 9.18124 54.1568C9.5031 53.4466 11.394 53.7916 11.4342 52.9596C11.4744 52.1276 9.86518 49.6113 10.187 48.8402C10.529 48.0691 15.739 40.8449 48.5077 40.4391C48.5077 40.4391 63.7957 28.5273 78.4199 28.1215C93.0441 27.7156 114.427 33.6005 127.905 38.4707C127.905 38.4707 130.158 38.8156 131.345 38.5316C132.531 38.2677 134.704 37.5372 135.509 38.2475C136.313 38.9374 135.951 40.2767 135.75 41.6363C136.092 42.5089 136.917 43.9294 137.701 44.8425C138.486 45.7354 140.155 46.8109 140.216 47.4603C140.256 48.1097 139.29 52.0058 139.512 53.2031C139.673 54.3801 140.799 54.5627 140.578 55.5165Z" fill="white"/>
</mask>
<g mask="url(#mask2_11415_25667)">
<path d="M140.859 55.9824C140.859 55.9824 139.008 56.2259 138.565 56.855C138.123 57.4841 136.534 60.5483 134.904 61.6846C133.275 62.8413 134.643 62.8616 134.643 62.8616L140.275 62.2528L140.859 55.9824Z" fill="#1B1A1E" stroke="#1B1A1E" stroke-width="0.5" stroke-miterlimit="10"/>
</g>
<path d="M47.0579 58.0132C47.0579 60.428 46.2734 62.6602 44.9458 64.4663C42.9945 67.1246 39.8565 68.8698 36.3161 68.8698C32.6148 68.8698 29.356 66.9825 27.4249 64.101C26.2582 62.3761 25.5742 60.286 25.5742 58.0335C25.5742 52.0472 30.3819 47.1973 36.3161 47.1973C42.2502 47.1973 47.0579 52.0269 47.0579 58.0132Z" fill="#1B1A1E" stroke="#1B1A1E" stroke-width="0.5" stroke-miterlimit="10"/>
<path d="M36.2948 64.9945C40.1166 64.9945 43.2147 61.8692 43.2147 58.0139C43.2147 54.1585 40.1166 51.0332 36.2948 51.0332C32.4731 51.0332 29.375 54.1585 29.375 58.0139C29.375 61.8692 32.4731 64.9945 36.2948 64.9945Z" fill="#99A0AE" stroke="#99A0AE" stroke-width="0.5" stroke-miterlimit="10"/>
<path d="M34.8674 51.8442C35.0686 51.8036 35.2496 51.9659 35.2094 52.1688L34.7668 54.5837C34.6663 55.091 34.2036 55.4359 33.6806 55.3751L31.2063 55.0504C31.0052 55.0301 30.8845 54.7866 31.0052 54.6039C31.8702 53.2443 33.2582 52.2297 34.8674 51.8442Z" fill="#1B1A1E"/>
<path d="M41.6071 54.6452C41.7277 54.8278 41.6071 55.051 41.4059 55.0916L39.0926 55.396C38.5897 55.4569 38.1069 55.1119 38.0063 54.6046L37.5638 52.2506C37.5235 52.0477 37.7247 51.8651 37.9259 51.926C39.4748 52.3115 40.7823 53.3059 41.6071 54.6452Z" fill="#1B1A1E"/>
<path d="M42.5922 58.0343C42.5922 59.5359 42.0692 60.9361 41.2042 62.0116C41.0634 62.1739 40.822 62.1334 40.7214 61.9507L39.6955 59.7794C39.4742 59.3127 39.6553 58.7445 40.1179 58.501L42.1698 57.3646C42.3508 57.2631 42.5721 57.3849 42.5922 57.5878C42.5721 57.7299 42.5922 57.8719 42.5922 58.0343Z" fill="#1B1A1E"/>
<path d="M38.8324 63.3899C38.9732 63.5319 38.9329 63.7754 38.7519 63.8566C38.0076 64.1813 37.1627 64.3639 36.2978 64.3639C35.473 64.3639 34.6885 64.2016 33.9844 63.9175C33.7833 63.8363 33.7431 63.5928 33.904 63.4508L35.7345 61.7056C36.1167 61.3403 36.7001 61.3403 37.0622 61.7056L38.8324 63.3899Z" fill="#1B1A1E"/>
<path d="M33.0967 59.7793L32.0104 62.0927C31.9299 62.2753 31.6684 62.3159 31.5477 62.1535C30.6023 61.0375 30.0391 59.5967 30.0391 58.0139C30.0391 57.8312 30.0391 57.6486 30.0592 57.4863C30.0793 57.2833 30.3006 57.1616 30.4816 57.263L32.7145 58.4806C33.1369 58.7444 33.3179 59.2923 33.0967 59.7793Z" fill="#1B1A1E"/>
<path d="M125.058 57.9937C125.058 60.4085 124.273 62.6407 122.946 64.4467C120.995 67.1051 117.856 68.8502 114.316 68.8502C110.615 68.8502 107.356 66.963 105.425 64.0815C104.258 62.3566 103.574 60.2665 103.574 58.014C103.574 52.0277 108.382 47.1777 114.316 47.1777C120.25 47.1777 125.058 52.0074 125.058 57.9937Z" fill="#1B1A1E" stroke="#1B1A1E" stroke-width="0.5" stroke-miterlimit="10"/>
<path d="M114.295 64.975C118.117 64.975 121.215 61.8496 121.215 57.9943C121.215 54.139 118.117 51.0137 114.295 51.0137C110.473 51.0137 107.375 54.139 107.375 57.9943C107.375 61.8496 110.473 64.975 114.295 64.975Z" fill="#99A0AE" stroke="#99A0AE" stroke-width="0.5" stroke-miterlimit="10"/>
<path d="M112.867 51.8246C113.069 51.784 113.25 51.9464 113.209 52.1493L112.767 54.5641C112.666 55.0714 112.204 55.4164 111.681 55.3555L109.206 55.0309C109.005 55.0106 108.884 54.767 109.005 54.5844C109.87 53.2248 111.258 52.2102 112.867 51.8246Z" fill="#1B1A1E"/>
<path d="M119.607 54.6256C119.728 54.8083 119.607 55.0315 119.406 55.0721L117.093 55.3765C116.59 55.4373 116.107 55.0924 116.006 54.585L115.564 52.2311C115.524 52.0282 115.725 51.8455 115.926 51.9064C117.475 52.292 118.782 53.2863 119.607 54.6256Z" fill="#1B1A1E"/>
<path d="M120.592 58.0147C120.592 59.5164 120.069 60.9166 119.204 61.9921C119.063 62.1544 118.822 62.1138 118.721 61.9312L117.696 59.7599C117.474 59.2932 117.655 58.725 118.118 58.4814L120.17 57.3451C120.351 57.2436 120.572 57.3654 120.592 57.5683C120.572 57.7103 120.592 57.8524 120.592 58.0147Z" fill="#1B1A1E"/>
<path d="M116.832 63.3703C116.973 63.5124 116.933 63.7559 116.752 63.8371C116.008 64.1618 115.163 64.3444 114.298 64.3444C113.473 64.3444 112.689 64.182 111.984 63.898C111.783 63.8168 111.743 63.5733 111.904 63.4312L113.735 61.6861C114.117 61.3208 114.7 61.3208 115.062 61.6861L116.832 63.3703Z" fill="#1B1A1E"/>
<path d="M111.097 59.7598L110.01 62.0731C109.93 62.2558 109.668 62.2964 109.548 62.134C108.602 61.0179 108.039 59.5771 108.039 57.9943C108.039 57.8117 108.039 57.6291 108.059 57.4667C108.079 57.2638 108.301 57.142 108.482 57.2435L110.714 58.4611C111.137 58.7249 111.318 59.2728 111.097 59.7598Z" fill="#1B1A1E"/>
<path d="M13.4671 48.6177L25.0136 47.6842C25.3958 47.6639 25.5769 48.1307 25.2952 48.3742L21.9761 51.1949C21.8554 51.2963 21.7146 51.3572 21.5537 51.3775L15.3982 51.8239C15.1367 51.8442 14.8954 51.7225 14.7344 51.4992L13.1855 49.2265C13.0045 48.983 13.1654 48.638 13.4671 48.6177Z" fill="white"/>
<path d="M14.0679 56.6125L12.9414 60.9348C12.9012 61.0769 13.0219 61.2189 13.1627 61.2189L17.729 60.9551C18.7348 60.8942 19.5797 60.2043 19.8613 59.2302L20.5653 56.7343C20.6659 56.3893 20.4044 56.0646 20.0624 56.0849L14.43 56.3081C14.2691 56.3284 14.1082 56.4502 14.0679 56.6125Z" fill="#1B1A1E"/>
<path d="M59.0671 41.0074C58.866 41.0074 58.7855 40.7639 58.9263 40.6218C60.8977 38.9578 69.0647 32.383 76.3466 31.4902C84.6343 30.4755 97.0056 31.409 107.888 35.1225C108.029 35.1631 108.089 35.3255 108.029 35.4472C107.727 36.0966 106.782 37.8823 105.313 38.4708C103.523 39.2014 90.0857 40.1145 83.7895 40.2769C78.1369 40.4189 70.4728 40.703 68.944 40.7639C68.8032 40.7639 68.7026 40.6421 68.7227 40.5204C68.8233 40.0131 68.9641 38.8564 68.5015 38.2882C67.898 37.5374 64.6392 37.6794 63.734 38.1867C62.9294 38.6332 61.6218 40.4798 61.3201 40.9059C61.2799 40.9668 61.2195 40.9871 61.1391 40.9871H59.0671V41.0074Z" fill="#1B1A1E" stroke="#1B1A1E" stroke-width="0.5" stroke-miterlimit="10"/>
<path d="M85.6419 44.5588L93.5877 44.3965C93.8291 44.3965 93.9699 44.64 93.8492 44.8429L93.5273 45.3705C93.3664 45.614 93.1049 45.7764 92.8032 45.7764L86.6879 45.8778C86.4264 45.8778 86.185 45.7764 86.004 45.5532L85.4609 44.8835C85.3804 44.7617 85.4609 44.5588 85.6419 44.5588Z" fill="#99A0AE" stroke="#99A0AE" stroke-width="0.5" stroke-miterlimit="10"/>
</g>
<defs>
<clipPath id="clip0_11415_25667">
<rect width="132" height="43" fill="white" transform="translate(9 28)"/>
</clipPath>
</defs>
</svg>
