<svg width="16" height="16" viewBox="0 0 16 16" fill="none" xmlns="http://www.w3.org/2000/svg">
<path d="M6.66927 4.66797H9.33594M12.6693 4.66797H2.73594C1.96274 4.66797 1.33594 5.29477 1.33594 6.06797L1.33594 11.9346C1.33594 12.7078 1.96274 13.3346 2.73594 13.3346H13.2266C13.9966 13.3346 14.622 12.7128 14.6266 11.9429L14.661 6.07619C14.6656 5.29979 14.0374 4.66797 13.261 4.66797H12.6693Z" stroke="currentColor" stroke-linecap="round" stroke-linejoin="round"/>
<path d="M6.31927 3H4.68594C4.49264 3 4.33594 3.1567 4.33594 3.35V4.31667C4.33594 4.50997 4.49264 4.66667 4.68594 4.66667H6.31927C6.51257 4.66667 6.66927 4.50997 6.66927 4.31667V3.35C6.66927 3.1567 6.51257 3 6.31927 3Z" fill="currentColor" stroke="currentColor" stroke-linejoin="round"/>
<path d="M11.3193 3H9.68594C9.49264 3 9.33594 3.1567 9.33594 3.35V4.31667C9.33594 4.50997 9.49264 4.66667 9.68594 4.66667H11.3193C11.5126 4.66667 11.6693 4.50997 11.6693 4.31667V3.35C11.6693 3.1567 11.5126 3 11.3193 3Z" fill="currentColor" stroke="currentColor" stroke-linejoin="round"/>
<path d="M8.59928 7L7 9.00008H9L7.3999 11" stroke="currentColor" stroke-linecap="round" stroke-linejoin="round"/>
</svg>
