<svg width="16" height="16" viewBox="0 0 16 16" fill="none" xmlns="http://www.w3.org/2000/svg">
<path d="M6 2L10 2" stroke="currentColor" stroke-linecap="round" stroke-linejoin="round"/>
<path d="M8 2V4" stroke="currentColor" stroke-linecap="round" stroke-linejoin="round"/>
<path d="M8 2V4" stroke="currentColor" stroke-linecap="round" stroke-linejoin="round"/>
<path d="M0.664062 6.66797L0.664063 10.668" stroke="currentColor" stroke-linecap="round" stroke-linejoin="round"/>
<path d="M2.66406 8.66797H0.664062" stroke="currentColor" stroke-linecap="round" stroke-linejoin="round"/>
<path d="M10.8047 4.33203H4.06406C3.29086 4.33203 2.66406 4.95883 2.66406 5.73203V10.6968C2.66406 11.1005 2.83834 11.4845 3.14216 11.7504L4.93485 13.319C5.19006 13.5423 5.51765 13.6654 5.85676 13.6654H10.8047C11.1438 13.6654 11.4714 13.5423 11.7266 13.319L13.7233 11.5718C13.9 11.4172 14.1268 11.332 14.3615 11.332C14.8968 11.332 15.3307 10.8981 15.3307 10.3629V7.63454C15.3307 7.09928 14.8968 6.66536 14.3615 6.66536C14.1268 6.66536 13.9 6.58016 13.7233 6.42557L11.7266 4.67842C11.4714 4.45512 11.1438 4.33203 10.8047 4.33203Z" stroke="currentColor" stroke-linecap="round"/>
</svg>
