<svg width="25" height="24" viewBox="0 0 25 24" fill="none" xmlns="http://www.w3.org/2000/svg">
<path d="M7.75 17.5C7.75 18.163 8.01339 18.7989 8.48223 19.2678C8.95107 19.7366 9.58696 20 10.25 20C10.913 20 11.5489 19.7366 12.0178 19.2678C12.4866 18.7989 12.75 18.163 12.75 17.5C12.75 16.837 12.4866 16.2011 12.0178 15.7322C11.5489 15.2634 10.913 15 10.25 15C9.58696 15 8.95107 15.2634 8.48223 15.7322C8.01339 16.2011 7.75 16.837 7.75 17.5Z" stroke="#6F7788" stroke-width="1.5" stroke-linecap="round" stroke-linejoin="round"/>
<path d="M11.9318 10.4545L7.28566 5.47652C7.00197 5.17257 6.60485 5 6.18908 5H1.75M11.9318 10.4545H13.2045C13.8796 10.4545 14.5271 10.6844 15.0045 11.0936C15.4818 11.5028 15.75 12.0577 15.75 12.6364V15.5C15.75 16.3284 15.0784 17 14.25 17H13.2045M11.9318 10.4545H1.75M7.75 17H1.75M4.29545 10.4545V5" stroke="#6F7788" stroke-width="1.5" stroke-linecap="round" stroke-linejoin="round"/>
<path d="M14.75 7V5" stroke="#6F7788" stroke-width="1.5" stroke-linecap="round" stroke-linejoin="round"/>
<path d="M20.75 12H22.75" stroke="#6F7788" stroke-width="1.5" stroke-linecap="round" stroke-linejoin="round"/>
<path d="M18.75 16L20.75 17" stroke="#6F7788" stroke-width="1.5" stroke-linecap="round" stroke-linejoin="round"/>
<path d="M18.75 8L20.75 6" stroke="#6F7788" stroke-width="1.5" stroke-linecap="round" stroke-linejoin="round"/>
</svg>
