<svg width="25" height="25" viewBox="0 0 25 25" fill="none" xmlns="http://www.w3.org/2000/svg">
<path d="M7.75 17.834C7.75 18.497 8.01339 19.1329 8.48223 19.6018C8.95107 20.0706 9.58696 20.334 10.25 20.334C10.913 20.334 11.5489 20.0706 12.0178 19.6018C12.4866 19.1329 12.75 18.497 12.75 17.834C12.75 17.1709 12.4866 16.5351 12.0178 16.0662C11.5489 15.5974 10.913 15.334 10.25 15.334C9.58696 15.334 8.95107 15.5974 8.48223 16.0662C8.01339 16.5351 7.75 17.1709 7.75 17.834Z" stroke="#EF3C30" stroke-width="1.5" stroke-linecap="round" stroke-linejoin="round"/>
<path d="M11.9318 10.7885L7.28566 5.81051C7.00197 5.50655 6.60485 5.33398 6.18908 5.33398H1.75M11.9318 10.7885H13.2045C13.8796 10.7885 14.5271 11.0184 15.0045 11.4276C15.4818 11.8367 15.75 12.3917 15.75 12.9703V15.834C15.75 16.6624 15.0784 17.334 14.25 17.334H13.2045M11.9318 10.7885H1.75M7.75 17.334H1.75M4.29545 10.7885V5.33398" stroke="#EF3C30" stroke-width="1.5" stroke-linecap="round" stroke-linejoin="round"/>
<path d="M14.75 7.33398V5.33398" stroke="#EF3C30" stroke-width="1.5" stroke-linecap="round" stroke-linejoin="round"/>
<path d="M20.75 12.334H22.75" stroke="#EF3C30" stroke-width="1.5" stroke-linecap="round" stroke-linejoin="round"/>
<path d="M18.75 16.334L20.75 17.334" stroke="#EF3C30" stroke-width="1.5" stroke-linecap="round" stroke-linejoin="round"/>
<path d="M18.75 8.33398L20.75 6.33398" stroke="#EF3C30" stroke-width="1.5" stroke-linecap="round" stroke-linejoin="round"/>
</svg>
