<svg width="25" height="25" viewBox="0 0 25 25" fill="none" xmlns="http://www.w3.org/2000/svg">
<path d="M15.1523 2.33398H6.15234C5.55561 2.33398 4.98331 2.5447 4.56135 2.91977C4.1394 3.29484 3.90234 3.80355 3.90234 4.33398V20.334C3.90234 20.8644 4.1394 21.3731 4.56135 21.7482C4.98331 22.1233 5.55561 22.334 6.15234 22.334H19.6523C20.2491 22.334 20.8214 22.1233 21.2433 21.7482C21.6653 21.3731 21.9023 20.8644 21.9023 20.334V8.33398L15.1523 2.33398Z" stroke="#6F7788" stroke-width="1.5" stroke-linecap="round" stroke-linejoin="round"/>
<path d="M7.90234 7.33398H13.9023" stroke="#6F7788" stroke-width="1.5" stroke-linecap="round" stroke-linejoin="round"/>
<path d="M10.9005 11.334L13.023 13.3848C13.4427 13.7902 13.7286 14.3067 13.8446 14.869C13.9605 15.4314 13.9012 16.0143 13.6742 16.5441C13.4472 17.0739 13.0626 17.5267 12.5693 17.8453C12.0759 18.1639 11.4958 18.334 10.9023 18.334C10.3089 18.334 9.72882 18.1639 9.23543 17.8453C8.74204 17.5267 8.35752 17.0739 8.13052 16.5441C7.90351 16.0143 7.84422 15.4314 7.96013 14.869C8.07605 14.3067 8.36197 13.7902 8.78172 13.3848L10.9005 11.334Z" stroke="#6F7788" stroke-width="1.5" stroke-linecap="round" stroke-linejoin="round"/>
</svg>
