<svg width="24" height="24" viewBox="0 0 24 24" fill="none" xmlns="http://www.w3.org/2000/svg">
<path d="M11.1026 2.83449C11.469 2.08956 12.531 2.08956 12.8974 2.83449L15.167 7.44965C15.3122 7.74501 15.5935 7.94998 15.9192 7.99775L21.0024 8.74351C21.8212 8.86363 22.148 9.86949 21.5563 10.448L17.875 14.047C17.6402 14.2765 17.533 14.6068 17.5883 14.9305L18.4563 20.0099C18.596 20.8273 17.7372 21.4498 17.0037 21.0627L12.4668 18.6678C12.1747 18.5137 11.8253 18.5137 11.5332 18.6678L6.99625 21.0627C6.26284 21.4498 5.40405 20.8273 5.54373 20.0099L6.41167 14.9305C6.46699 14.6068 6.35984 14.2765 6.12503 14.047L2.44369 10.448C1.85197 9.86949 2.17884 8.86363 2.9976 8.74351L8.08081 7.99775C8.40647 7.94998 8.68776 7.74501 8.83302 7.44965L11.1026 2.83449Z" stroke="currentColor" stroke-width="1.5" stroke-linecap="round" stroke-linejoin="round"/>
</svg>
