<svg width="25" height="25" viewBox="0 0 25 25" fill="none" xmlns="http://www.w3.org/2000/svg">
<path d="M10.6034 6.63372C10.7866 6.82065 10.8892 7.07197 10.8892 7.33372C10.8892 7.59547 10.7866 7.84679 10.6034 8.03372L9.00337 9.63372C8.81644 9.81695 8.56512 9.91958 8.30337 9.91958C8.04161 9.91958 7.7903 9.81695 7.60337 9.63372L3.83337 5.86372C3.33053 6.97491 3.17828 8.21295 3.39691 9.41286C3.61554 10.6128 4.19465 11.7176 5.05709 12.58C5.91952 13.4424 7.02431 14.0216 8.22422 14.2402C9.42413 14.4588 10.6622 14.3066 11.7734 13.8037L18.6834 20.7137C19.0812 21.1115 19.6208 21.335 20.1834 21.335C20.746 21.335 21.2855 21.1115 21.6834 20.7137C22.0812 20.3159 22.3047 19.7763 22.3047 19.2137C22.3047 18.6511 22.0812 18.1115 21.6834 17.7137L14.7734 10.8037C15.2762 9.69253 15.4285 8.45449 15.2098 7.25457C14.9912 6.05466 14.4121 4.94988 13.5496 4.08744C12.6872 3.22501 11.5824 2.64589 10.3825 2.42726C9.1826 2.20864 7.94456 2.36088 6.83337 2.86372L10.5934 6.62372L10.6034 6.63372Z" stroke="currentColor" stroke-width="1.5" stroke-linecap="round" stroke-linejoin="round"/>
</svg>
