<svg width="25" height="25" viewBox="0 0 25 25" fill="none" xmlns="http://www.w3.org/2000/svg">
<path d="M5 4.83398C5 4.00556 5.67157 3.33398 6.5 3.33398H14.5C15.3284 3.33398 16 4.00556 16 4.83398V21.334H5V4.83398Z" stroke="#6F7788" stroke-width="1.5"/>
<rect x="7.5" y="5.83398" width="6" height="6" fill="#6F7788" stroke="#6F7788" stroke-width="1.5" stroke-linejoin="round"/>
<path d="M4 21.334L17 21.334" stroke="#6F7788" stroke-width="1.5" stroke-linecap="round"/>
<path d="M16.3359 14.834H16.8359C17.6644 14.834 18.3359 15.5056 18.3359 16.334V17.834C18.3359 18.6624 19.0075 19.334 19.8359 19.334V19.334C20.6644 19.334 21.3359 18.6624 21.3359 17.834V7.83398V7.83398C21.3359 6.65857 20.536 5.63399 19.3957 5.34891L19.3359 5.33398" stroke="#6F7788" stroke-width="1.5" stroke-linecap="round" stroke-linejoin="round"/>
<path d="M19.5 9.33398H21.3333V12.334H19.5V9.33398Z" fill="#6F7788" stroke="#6F7788" stroke-width="1.5" stroke-linejoin="round"/>
</svg>
