<svg width="20" height="20" viewBox="0 0 20 20" fill="none" xmlns="http://www.w3.org/2000/svg">
<rect width="20" height="20" rx="10" fill="#202834"/>
<path d="M13.9613 8.40333L13.203 6.5074C13.0786 6.19655 12.789 5.98289 12.4553 5.95584L12.3212 5.94496C10.7209 5.81521 9.11269 5.81891 7.51308 5.95602C7.19851 5.98299 6.92601 6.18498 6.80875 6.47813L6.03867 8.40333C6.01296 8.4676 5.98064 8.52903 5.94224 8.58663L5.16795 9.74808C5.05844 9.91234 5 10.1054 5 10.3028V11.5C5 12.0523 5.44772 12.5 6 12.5H14C14.5523 12.5 15 12.0523 15 11.5V10.3028C15 10.1054 14.9416 9.91234 14.8321 9.74808L14.0578 8.58663C14.0194 8.52903 13.987 8.4676 13.9613 8.40333Z" fill="white" stroke="white" stroke-width="0.75" stroke-linecap="round" stroke-linejoin="round"/>
<path d="M7.88552 7.28602L7.39453 8.5C9.07213 8.33372 10.7618 8.32857 12.4404 8.48464L12.6056 8.5L12.116 7.28936C12.1062 7.2651 12.0839 7.24815 12.0579 7.24517L11.897 7.22675C10.5815 7.07612 9.25271 7.08232 7.93865 7.24522C7.91484 7.24817 7.89451 7.26379 7.88552 7.28602Z" fill="#202834" stroke="#202834" stroke-width="0.75" stroke-linecap="round" stroke-linejoin="round"/>
<path d="M5.25 13.5V12.25L5.75 12.5H6.5V13.5C6.5 13.6381 6.38807 13.75 6.25 13.75H5.5C5.36193 13.75 5.25 13.6381 5.25 13.5Z" fill="white" stroke="white" stroke-width="0.75" stroke-linecap="round" stroke-linejoin="round"/>
<path d="M14.75 13.5V12.25L14.25 12.5H13.5V13.5C13.5 13.6381 13.6119 13.75 13.75 13.75H14.5C14.6381 13.75 14.75 13.6381 14.75 13.5Z" fill="white" stroke="white" stroke-width="0.75" stroke-linecap="round" stroke-linejoin="round"/>
<path d="M6.75 10.125C7.09517 10.125 7.375 10.4048 7.375 10.75C7.375 11.0952 7.09517 11.375 6.75 11.375C6.40483 11.375 6.125 11.0952 6.125 10.75C6.125 10.4048 6.40483 10.125 6.75 10.125Z" fill="#202834" stroke="#202834" stroke-width="0.25"/>
<path d="M13.25 10.125C13.5952 10.125 13.875 10.4048 13.875 10.75C13.875 11.0952 13.5952 11.375 13.25 11.375C12.9048 11.375 12.625 11.0952 12.625 10.75C12.625 10.4048 12.9048 10.125 13.25 10.125Z" fill="#202834" stroke="#202834" stroke-width="0.25"/>
<path d="M9 10.75H11" stroke="#202834" stroke-linecap="round" stroke-linejoin="round"/>
</svg>
