<svg width="25" height="25" viewBox="0 0 25 25" fill="none" xmlns="http://www.w3.org/2000/svg">
<path d="M10.3962 9.18179H9.24706C8.90967 9.16418 8.5758 9.25749 8.29643 9.44747C8.01706 9.63745 7.80754 9.91363 7.69988 10.2339L6.84958 12.7958C6.64598 13.4093 6.07231 13.8233 5.42595 13.8233H4.1878C3.77746 13.8233 3.38393 13.9863 3.09378 14.2765C2.80363 14.5666 2.64062 14.9602 2.64062 15.3705V18.4649C2.64062 18.8752 2.80363 19.2686 3.09378 19.5589C3.38393 19.849 3.77746 20.0121 4.1878 20.0121H4.96139" stroke="currentColor" stroke-width="1.5" stroke-linecap="round" stroke-linejoin="round"/>
<path d="M20.4336 13.8223H21.2072C21.6175 13.8223 22.0111 13.9853 22.3012 14.2754C22.5913 14.5656 22.7544 14.9591 22.7544 15.3694V18.4638C22.7544 18.8741 22.5913 19.2676 22.3012 19.5578C22.0111 19.8479 21.6175 20.011 21.2072 20.011H20.4336" stroke="currentColor" stroke-width="1.5" stroke-linecap="round" stroke-linejoin="round"/>
<path d="M18.1114 22.3323C16.8288 22.3323 15.7891 21.2924 15.7891 20.0098C15.7891 18.7272 16.8288 17.6875 18.1114 17.6875C19.3941 17.6875 20.4338 18.7272 20.4338 20.0098C20.4338 21.2924 19.3941 22.3323 18.1114 22.3323Z" stroke="currentColor" stroke-width="1.5" stroke-linecap="round" stroke-linejoin="round"/>
<path d="M7.28334 22.3323C6.00072 22.3323 4.96094 21.2926 4.96094 20.0098C4.96094 18.7272 6.00072 17.6875 7.28334 17.6875C8.56596 17.6875 9.60574 18.7272 9.60574 20.0098C9.60574 21.2926 8.56596 22.3323 7.28334 22.3323Z" stroke="currentColor" stroke-width="1.5" stroke-linecap="round" stroke-linejoin="round"/>
<path d="M15.7909 20.0117H9.60547" stroke="currentColor" stroke-width="1.5" stroke-linecap="round" stroke-linejoin="round"/>
<path d="M13.3408 7.6469C12.7979 7.55244 12.7979 6.77302 13.3408 6.67857C15.3078 6.33635 16.8723 4.83812 17.2992 2.88775L17.332 2.73825C17.4494 2.20164 18.2136 2.1983 18.3356 2.73386L18.3754 2.90809C18.8182 4.84926 20.383 6.33483 22.3445 6.67609C22.8904 6.77102 22.8904 7.55444 22.3445 7.64937C20.383 7.99063 18.8182 9.4762 18.3754 11.4174L18.3356 11.5916C18.2136 12.1272 17.4494 12.1238 17.332 11.5872L17.2993 11.4377C16.8723 9.48734 15.3078 7.98911 13.3408 7.6469Z" stroke="currentColor" stroke-width="1.5" stroke-linecap="round" stroke-linejoin="round"/>
</svg>
