<svg width="16" height="16" viewBox="0 0 16 16" fill="none" xmlns="http://www.w3.org/2000/svg">
<path d="M13.8008 3.84968L12.1117 1.66602H3.88952L2.19531 3.84968" stroke="#1B1A1E" stroke-linecap="round" stroke-linejoin="round"/>
<path d="M2 4.33268C2 3.96448 2.29848 3.66602 2.66667 3.66602H13.3333C13.7015 3.66602 14 3.96448 14 4.33268V13.3327C14 13.885 13.5523 14.3327 13 14.3327H3C2.44772 14.3327 2 13.885 2 13.3327V4.33268Z" stroke="#1B1A1E" stroke-linejoin="round"/>
<path d="M7.71628 7.54171C7.7677 7.59417 7.7965 7.66469 7.7965 7.73815C7.7965 7.8116 7.7677 7.88213 7.71628 7.93459L7.26727 8.38359C7.21481 8.43501 7.14429 8.46381 7.07083 8.46381C6.99738 8.46381 6.92685 8.43501 6.87439 8.38359L5.81642 7.32562C5.67531 7.63746 5.63259 7.98489 5.69394 8.32162C5.75529 8.65835 5.91781 8.96838 6.15983 9.2104C6.40186 9.45243 6.71189 9.61494 7.04862 9.6763C7.38535 9.73765 7.73278 9.69493 8.04461 9.55382L9.98375 11.493C10.0954 11.6046 10.2468 11.6673 10.4047 11.6673C10.5626 11.6673 10.714 11.6046 10.8256 11.493C10.9373 11.3813 11 11.2299 11 11.072C11 10.9141 10.9373 10.7627 10.8256 10.6511L8.8865 8.71193C9.02761 8.4001 9.07033 8.05267 9.00898 7.71594C8.94763 7.37921 8.78511 7.06917 8.54309 6.82715C8.30106 6.58513 7.99103 6.42261 7.6543 6.36126C7.31757 6.2999 6.97014 6.34263 6.65831 6.48374L7.71347 7.5389L7.71628 7.54171Z" fill="#1B1A1E" stroke="#1B1A1E" stroke-width="0.5" stroke-linecap="round" stroke-linejoin="round"/>
</svg>
