<svg width="25" height="25" viewBox="0 0 25 25" fill="none" xmlns="http://www.w3.org/2000/svg">
<path d="M7.75 2.58398C7.75 1.75556 8.42157 1.08398 9.25 1.08398H15.25C16.0784 1.08398 16.75 1.75556 16.75 2.58398H7.75Z" fill="#EF3C30"/>
<path d="M5.5 4.83398C5.5 4.00556 6.17157 3.33398 7 3.33398H17.5C18.3284 3.33398 19 4.00556 19 4.83398H5.5Z" fill="#EF3C30"/>
<path d="M6.35714 22.834C5.70893 22.834 5.154 22.6032 4.69241 22.1416C4.23082 21.68 4 21.1251 4 20.4768V8.69113C4 8.04291 4.23082 7.48798 4.69241 7.02639C5.154 6.56481 5.70893 6.33398 6.35714 6.33398H18.1429C18.7911 6.33398 19.346 6.56481 19.8076 7.02639C20.2692 7.48798 20.5 8.04291 20.5 8.69113V20.4768C20.5 21.1251 20.2692 21.68 19.8076 22.1416C19.346 22.6032 18.7911 22.834 18.1429 22.834H6.35714Z" stroke="#EF3C30" stroke-width="1.5"/>
<path d="M13.5625 17.0215C13.4483 17.1715 13.356 17.3282 13.2856 17.4917C13.0964 17.9306 12.7279 18.334 12.25 18.334C11.7721 18.334 11.4036 17.9306 11.2144 17.4917C11.144 17.3282 11.0517 17.1715 10.9375 17.0215C10.6394 16.6298 10.3077 16.2423 9.94231 15.859C9.57694 15.4756 9.24521 15.084 8.94712 14.684C8.64902 14.284 8.5 13.834 8.5 13.334C8.5 12.434 8.86537 11.6673 9.59615 11.034C10.3269 10.4006 11.2115 10.084 12.25 10.084C13.3077 10.084 14.1971 10.4006 14.9183 11.034C15.6394 11.6673 16 12.434 16 13.334C16 13.834 15.851 14.284 15.5529 14.684C15.2548 15.084 14.9231 15.4756 14.5577 15.859C14.1923 16.2423 13.8606 16.6298 13.5625 17.0215Z" stroke="#EF3C30" stroke-width="1.5"/>
<rect x="10.75" y="19.084" width="3" height="1.5" rx="0.75" fill="#EF3C30"/>
</svg>
