<svg width="25" height="24" viewBox="0 0 25 24" fill="none" xmlns="http://www.w3.org/2000/svg">
<path d="M7.75 2.25C7.75 1.42157 8.42157 0.75 9.25 0.75H15.25C16.0784 0.75 16.75 1.42157 16.75 2.25H7.75Z" fill="currentColor"/>
<path d="M5.5 4.5C5.5 3.67157 6.17157 3 7 3H17.5C18.3284 3 19 3.67157 19 4.5H5.5Z" fill="currentColor"/>
<path d="M6.35714 22.5C5.70893 22.5 5.154 22.2692 4.69241 21.8076C4.23082 21.346 4 20.7911 4 20.1429V8.35714C4 7.70893 4.23082 7.154 4.69241 6.69241C5.154 6.23082 5.70893 6 6.35714 6H18.1429C18.7911 6 19.346 6.23082 19.8076 6.69241C20.2692 7.154 20.5 7.70893 20.5 8.35714V20.1429C20.5 20.7911 20.2692 21.346 19.8076 21.8076C19.346 22.2692 18.7911 22.5 18.1429 22.5H6.35714Z" stroke="currentColor" stroke-width="1.5"/>
<path d="M13.5625 16.6875C13.4483 16.8375 13.356 16.9942 13.2856 17.1577C13.0964 17.5966 12.7279 18 12.25 18C11.7721 18 11.4036 17.5966 11.2144 17.1577C11.144 16.9942 11.0517 16.8375 10.9375 16.6875C10.6394 16.2959 10.3077 15.9084 9.94231 15.525C9.57694 15.1417 9.24521 14.75 8.94712 14.35C8.64902 13.95 8.5 13.5 8.5 13C8.5 12.1 8.86537 11.3333 9.59615 10.7C10.3269 10.0666 11.2115 9.75 12.25 9.75C13.3077 9.75 14.1971 10.0666 14.9183 10.7C15.6394 11.3333 16 12.1 16 13C16 13.5 15.851 13.95 15.5529 14.35C15.2548 14.75 14.9231 15.1417 14.5577 15.525C14.1923 15.9084 13.8606 16.2959 13.5625 16.6875Z" stroke="currentColor" stroke-width="1.5"/>
<rect x="10.75" y="18.75" width="3" height="1.5" rx="0.75" fill="currentColor"/>
</svg>
