<svg width="20" height="20" viewBox="0 0 20 20" fill="none" xmlns="http://www.w3.org/2000/svg">
<path d="M16.2503 2.9165H3.75033C2.59973 2.9165 1.66699 3.84925 1.66699 4.99984V14.9998C1.66699 16.1504 2.59973 17.0832 3.75033 17.0832H16.2503C17.4009 17.0832 18.3337 16.1504 18.3337 14.9998V4.99984C18.3337 3.84925 17.4009 2.9165 16.2503 2.9165Z" stroke="currentColor" stroke-width="1.5" stroke-linejoin="round"/>
<path d="M10 5.4165V14.5832" stroke="currentColor" stroke-width="1.5" stroke-linecap="round" stroke-linejoin="round"/>
<path d="M12.292 6.25C12.292 6.25 10.2025 6.25 9.16699 6.25C8.13145 6.25 7.29199 7.08946 7.29199 8.125C7.29199 9.16054 8.13145 10 9.16699 10" stroke="currentColor" stroke-width="1.5" stroke-linecap="round" stroke-linejoin="round"/>
<path d="M7.70801 13.75C7.70801 13.75 9.79747 13.75 10.833 13.75C11.8685 13.75 12.708 12.9105 12.708 11.875C12.708 10.8395 11.8685 10 10.833 10H9.16634" stroke="currentColor" stroke-width="1.5" stroke-linecap="round" stroke-linejoin="round"/>
</svg>
