<svg width="20" height="20" viewBox="0 0 20 20" fill="none" xmlns="http://www.w3.org/2000/svg">
<path d="M9.95205 10.2421L15.0423 15.3324C15.3354 15.6254 15.5 16.0229 15.5 16.4373C15.5 16.8518 15.3354 17.2492 15.0423 17.5423C14.7492 17.8354 14.3518 18 13.9373 18C13.5229 18 13.1254 17.8354 12.8324 17.5423L7.74211 12.4521C6.92355 12.8225 6.01154 12.9346 5.12763 12.7736C4.24371 12.6125 3.42987 12.1859 2.79456 11.5506C2.15925 10.9153 1.73264 10.1014 1.57159 9.21753C1.41054 8.33362 1.52269 7.42161 1.89311 6.60306L4.67028 9.38023C4.80798 9.5152 4.99311 9.5908 5.18593 9.5908C5.37875 9.5908 5.56389 9.5152 5.70159 9.38023L6.88023 8.20159C7.0152 8.06389 7.0908 7.87875 7.0908 7.68593C7.0908 7.49311 7.0152 7.30798 6.88023 7.17028L6.87286 7.16291L4.10306 4.39311C4.92161 4.02269 5.83362 3.91054 6.71753 4.07159C7.16801 4.15367 7.60028 4.30472 8 4.51722" stroke="currentColor" stroke-width="1.5" stroke-linecap="round" stroke-linejoin="round"/>
<rect x="10.5" y="2" width="8" height="8" rx="4" stroke="currentColor" stroke-width="1.5"/>
<path d="M14.5001 4.5L14.9875 5.48738L16.0774 5.64669L15.2888 6.41483L15.4749 7.5L14.5001 6.98738L13.5254 7.5L13.7115 6.41483L12.9229 5.64669L14.0128 5.48738L14.5001 4.5Z" fill="currentColor" stroke="currentColor" stroke-linecap="round" stroke-linejoin="round"/>
</svg>
