<svg width="24" height="25" viewBox="0 0 24 25" fill="none" xmlns="http://www.w3.org/2000/svg">
<path d="M20.0196 11.5V21.5H4.01953V11.5" stroke="currentColor" stroke-width="1.5" stroke-linecap="round" stroke-linejoin="round"/>
<path d="M2.91942 7.3883C2.15465 9.36885 3.6298 11.5 5.75287 11.5C7.40972 11.5 8.76207 10.1568 8.76207 8.5C8.76207 10.1568 10.1052 11.5 11.7621 11.5H12.2713C13.9281 11.5 15.2713 10.1568 15.2713 8.5C15.2713 10.1568 16.6242 11.5 18.281 11.5C20.4052 11.5 21.8818 9.3676 21.1164 7.38615L19.6151 3.5H4.42088L2.91942 7.3883Z" stroke="currentColor" stroke-width="1.5" stroke-linejoin="round"/>
<path d="M11.009 15.1466C11.092 15.1956 11.1524 15.2753 11.1774 15.3684C11.2023 15.4615 11.1898 15.5607 11.1424 15.6447L10.7257 16.3665C10.6767 16.4495 10.597 16.5099 10.5039 16.5349C10.4108 16.5598 10.3116 16.5473 10.2276 16.4999L8.52696 15.518C8.45399 15.9613 8.51784 16.4163 8.71001 16.8223C8.90218 17.2284 9.21354 17.5662 9.60258 17.7909C9.99163 18.0155 10.4399 18.1162 10.8876 18.0796C11.3354 18.043 11.7613 17.8708 12.1087 17.586L15.2258 19.3856C15.4053 19.4893 15.6186 19.5173 15.8187 19.4637C16.0189 19.4101 16.1896 19.2791 16.2932 19.0997C16.3968 18.9202 16.4249 18.7069 16.3712 18.5068C16.3176 18.3066 16.1866 18.1359 16.0072 18.0323L12.8901 16.2327C12.963 15.7894 12.8992 15.3344 12.707 14.9284C12.5148 14.5223 12.2035 14.1845 11.8144 13.9598C11.4254 13.7352 10.9771 13.6345 10.5294 13.6711C10.0816 13.7077 9.65569 13.8799 9.30829 14.1647L11.0044 15.144L11.009 15.1466Z" fill="currentColor" stroke="currentColor" stroke-width="0.5" stroke-linecap="round" stroke-linejoin="round"/>
</svg>
