<svg width="16" height="16" viewBox="0 0 16 16" fill="none" xmlns="http://www.w3.org/2000/svg">
<path d="M13.2822 5.8643L12.2732 3.3419C12.1074 2.92743 11.7213 2.64255 11.2763 2.60648L11.0975 2.59198C8.96386 2.41898 6.81953 2.42391 4.68671 2.60673C4.26728 2.64268 3.90395 2.91201 3.7476 3.30287L2.7233 5.86364C2.68738 5.95343 2.64223 6.03926 2.58858 6.11973L1.57107 7.646C1.41775 7.87598 1.33594 8.14619 1.33594 8.42258V9.93203C1.33594 10.7052 1.96274 11.332 2.73594 11.332H13.2693C14.0425 11.332 14.6693 10.7052 14.6693 9.93203V8.42258C14.6693 8.14619 14.5875 7.87598 14.4341 7.646L13.4162 6.11914C13.3628 6.03906 13.3179 5.95366 13.2822 5.8643Z" stroke="#1B1A1E" stroke-linecap="round" stroke-linejoin="round"/>
<path d="M5.17809 4.38136L4.52344 6C6.76024 5.77829 9.01314 5.77143 11.2513 5.97951L11.4716 6L10.8187 4.38582C10.8057 4.35347 10.7759 4.33086 10.7413 4.32689L10.5267 4.30233C8.7727 4.10149 7.00101 4.10976 5.24892 4.32696C5.21719 4.33089 5.19008 4.35171 5.17809 4.38136Z" fill="#1B1A1E" stroke="#1B1A1E" stroke-linecap="round" stroke-linejoin="round"/>
<path d="M1.66406 12.65V11L2.33073 11.3333H3.33073V12.65C3.33073 12.8433 3.17403 13 2.98073 13H2.01406C1.82076 13 1.66406 12.8433 1.66406 12.65Z" fill="#1B1A1E" stroke="#1B1A1E" stroke-linecap="round" stroke-linejoin="round"/>
<path d="M14.3359 12.65V11L13.6693 11.3333H12.6693V12.65C12.6693 12.8433 12.826 13 13.0193 13H13.9859C14.1792 13 14.3359 12.8433 14.3359 12.65Z" fill="#1B1A1E" stroke="#1B1A1E" stroke-linecap="round" stroke-linejoin="round"/>
<path fill-rule="evenodd" clip-rule="evenodd" d="M3.66406 10C4.21634 10 4.66406 9.55228 4.66406 9C4.66406 8.44772 4.21634 8 3.66406 8C3.11178 8 2.66406 8.44772 2.66406 9C2.66406 9.55228 3.11178 10 3.66406 10Z" fill="#1B1A1E"/>
<path fill-rule="evenodd" clip-rule="evenodd" d="M12.3359 10C12.8882 10 13.3359 9.55228 13.3359 9C13.3359 8.44772 12.8882 8 12.3359 8C11.7837 8 11.3359 8.44772 11.3359 9C11.3359 9.55228 11.7837 10 12.3359 10Z" fill="#1B1A1E"/>
<path d="M6.66406 9H9.33073" stroke="#1B1A1E" stroke-linecap="round" stroke-linejoin="round"/>
</svg>
