<svg width="25" height="25" viewBox="0 0 25 25" fill="none" xmlns="http://www.w3.org/2000/svg">
<path d="M6.10094 2.83398L6.80844 3.56644C6.94836 3.71119 7.04366 3.89566 7.0823 4.0965C7.12094 4.29734 7.10117 4.50553 7.0255 4.69474C6.94984 4.88395 6.82166 5.04568 6.6572 5.15946C6.49274 5.27325 6.29937 5.33398 6.10156 5.33398C5.90375 5.33398 5.71039 5.27325 5.54592 5.15946C5.38146 5.04568 5.25329 4.88395 5.17762 4.69474C5.10195 4.50553 5.08219 4.29734 5.12083 4.0965C5.15946 3.89566 5.25477 3.71119 5.39469 3.56644L6.10094 2.83398Z" fill="currentColor" stroke="currentColor" stroke-width="0.75" stroke-linecap="round" stroke-linejoin="round"/>
<path d="M12.1009 2.83398L12.8084 3.56644C12.9484 3.71119 13.0437 3.89566 13.0823 4.0965C13.1209 4.29734 13.1012 4.50553 13.0255 4.69474C12.9498 4.88395 12.8217 5.04568 12.6572 5.15946C12.4927 5.27325 12.2994 5.33398 12.1016 5.33398C11.9038 5.33398 11.7104 5.27325 11.5459 5.15946C11.3815 5.04568 11.2533 4.88395 11.1776 4.69474C11.102 4.50553 11.0822 4.29734 11.1208 4.0965C11.1595 3.89566 11.2548 3.71119 11.3947 3.56644L12.1009 2.83398Z" fill="currentColor" stroke="currentColor" stroke-width="0.75" stroke-linecap="round" stroke-linejoin="round"/>
<path d="M18.1009 2.83398L18.8084 3.56644C18.9484 3.71119 19.0437 3.89566 19.0823 4.0965C19.1209 4.29734 19.1012 4.50553 19.0255 4.69474C18.9498 4.88395 18.8217 5.04568 18.6572 5.15946C18.4927 5.27325 18.2994 5.33398 18.1016 5.33398C17.9038 5.33398 17.7104 5.27325 17.5459 5.15946C17.3815 5.04568 17.2533 4.88395 17.1776 4.69474C17.102 4.50553 17.0822 4.29734 17.1208 4.0965C17.1595 3.89566 17.2548 3.71119 17.3947 3.56644L18.1009 2.83398Z" fill="currentColor" stroke="currentColor" stroke-width="0.75" stroke-linecap="round" stroke-linejoin="round"/>
<path d="M18.7076 12.1883L17.4372 9.01233C17.23 8.49425 16.7473 8.13815 16.1911 8.09306L15.9676 8.07493C13.3005 7.85869 10.6201 7.86485 7.95408 8.09337C7.4298 8.13831 6.97564 8.47497 6.78021 8.96354L5.4903 12.1883C5.45173 12.2847 5.40326 12.3769 5.34566 12.4633L4.01755 14.4554C3.85328 14.7018 3.76562 14.9914 3.76562 15.2875V17.5C3.76562 18.3284 4.4372 19 5.26562 19H18.9323C19.7607 19 20.4323 18.3284 20.4323 17.5V15.2875C20.4323 14.9914 20.3446 14.7018 20.1804 14.4554L18.8523 12.4633C18.7947 12.3769 18.7462 12.2847 18.7076 12.1883Z" stroke="currentColor" stroke-width="1.5" stroke-linecap="round" stroke-linejoin="round"/>
<path d="M8.58003 10.3107L7.76172 12.334C10.5577 12.0568 13.3739 12.0483 16.1715 12.3084L16.4469 12.334L15.6308 10.3163C15.6145 10.2758 15.5773 10.2476 15.534 10.2426L15.2658 10.2119C13.0733 9.96084 10.8587 9.97118 8.66857 10.2427C8.62891 10.2476 8.59502 10.2736 8.58003 10.3107Z" fill="currentColor" stroke="currentColor" stroke-width="1.125" stroke-linecap="round" stroke-linejoin="round"/>
<path d="M4.18359 20.709V18.584L5.01693 19.0007H6.26693V20.709C6.26693 20.9161 6.09903 21.084 5.89193 21.084H4.55859C4.35149 21.084 4.18359 20.9161 4.18359 20.709Z" fill="currentColor" stroke="currentColor" stroke-width="1.125" stroke-linecap="round" stroke-linejoin="round"/>
<path d="M20.0195 20.709V18.584L19.1862 19.0007H17.9362V20.709C17.9362 20.9161 18.1041 21.084 18.3112 21.084H19.6445C19.8516 21.084 20.0195 20.9161 20.0195 20.709Z" fill="currentColor" stroke="currentColor" stroke-width="1.125" stroke-linecap="round" stroke-linejoin="round"/>
<path fill-rule="evenodd" clip-rule="evenodd" d="M6.6875 17.334C7.37785 17.334 7.9375 16.7743 7.9375 16.084C7.9375 15.3936 7.37785 14.834 6.6875 14.834C5.99715 14.834 5.4375 15.3936 5.4375 16.084C5.4375 16.7743 5.99715 17.334 6.6875 17.334Z" fill="currentColor"/>
<path fill-rule="evenodd" clip-rule="evenodd" d="M17.5195 17.334C18.2099 17.334 18.7695 16.7743 18.7695 16.084C18.7695 15.3936 18.2099 14.834 17.5195 14.834C16.8292 14.834 16.2695 15.3936 16.2695 16.084C16.2695 16.7743 16.8292 17.334 17.5195 17.334Z" fill="currentColor"/>
<path d="M10.4336 16.084H13.7669" stroke="currentColor" stroke-width="1.5" stroke-linecap="round" stroke-linejoin="round"/>
</svg>
