<svg width="40" height="40" viewBox="0 0 40 40" fill="none" xmlns="http://www.w3.org/2000/svg">
<rect width="40" height="40" rx="20" fill="url(#paint0_linear_12273_31333)"/>
<path d="M19.905 9.28884C19.9352 9.19716 20.0648 9.19716 20.095 9.28884L21.4601 13.4397C22.2539 15.8532 24.1468 17.7461 26.5603 18.5399L30.7112 19.905C30.8028 19.9352 30.8028 20.0648 30.7112 20.095L26.5603 21.4601C24.1468 22.2539 22.2539 24.1468 21.4601 26.5603L20.095 30.7112C20.0648 30.8028 19.9352 30.8028 19.905 30.7112L18.5399 26.5603C17.7461 24.1468 15.8532 22.2539 13.4397 21.4601L9.28884 20.095C9.19716 20.0648 9.19716 19.9352 9.28884 19.905L13.4397 18.5399C15.8532 17.7461 17.7461 15.8532 18.5399 13.4397L19.905 9.28884Z" fill="#F4F7FA" stroke="#F4F7FA" stroke-width="1.5"/>
<defs>
<linearGradient id="paint0_linear_12273_31333" x1="35.5" y1="1.25" x2="7.5" y2="36.5" gradientUnits="userSpaceOnUse">
<stop stop-color="#1A2739"/>
<stop offset="1" stop-color="#0F4489"/>
</linearGradient>
</defs>
</svg>
