<svg width="17" height="17" viewBox="0 0 17 17" fill="none" xmlns="http://www.w3.org/2000/svg">
<path d="M11.5 3.10039H13.9C14.0591 3.10039 14.2117 3.1636 14.3243 3.27613C14.4368 3.38865 14.5 3.54126 14.5 3.70039V13.3004C14.5 13.4595 14.4368 13.6121 14.3243 13.7247C14.2117 13.8372 14.0591 13.9004 13.9 13.9004H3.1C2.94087 13.9004 2.78826 13.8372 2.67574 13.7247C2.56321 13.6121 2.5 13.4595 2.5 13.3004V3.70039C2.5 3.54126 2.56321 3.38865 2.67574 3.27613C2.78826 3.1636 2.94087 3.10039 3.1 3.10039H5.5V1.90039H6.7V3.10039H10.3V1.90039H11.5V3.10039ZM10.3 4.30039H6.7V5.50039H5.5V4.30039H3.7V6.70039H13.3V4.30039H11.5V5.50039H10.3V4.30039ZM13.3 7.90039H3.7V12.7004H13.3V7.90039Z" fill="#99A0AE"/>
</svg>
