<svg width="201" height="200" viewBox="0 0 201 200" fill="none" xmlns="http://www.w3.org/2000/svg">
<g clip-path="url(#clip0_491_9481)">
<rect x="0.5" width="200" height="200" rx="100" fill="#EAEEF4"/>
<path d="M163.858 82.73C191.195 81.9631 231.087 93.0626 256.217 102.237C256.247 102.241 256.291 102.248 256.349 102.256C256.465 102.273 256.635 102.296 256.846 102.322C257.268 102.374 257.853 102.437 258.506 102.484C259.831 102.579 261.365 102.601 262.388 102.353L262.396 102.351C263.446 102.115 265.082 101.631 266.572 101.39C267.328 101.268 268.09 101.199 268.772 101.255C269.447 101.311 270.103 101.493 270.592 101.926H270.593C271.512 102.723 271.723 103.869 271.693 105.036C271.665 106.148 271.411 107.429 271.23 108.627C271.875 110.228 273.34 112.764 274.729 114.399C275.432 115.208 276.527 116.094 277.533 116.992C278.023 117.429 278.491 117.869 278.845 118.285C279.139 118.631 279.414 119.026 279.507 119.436L279.535 119.613L279.536 119.621V119.627C279.549 119.833 279.522 120.125 279.481 120.446C279.439 120.778 279.375 121.182 279.299 121.631C279.15 122.51 278.938 123.657 278.748 124.765C278.554 125.897 278.372 127.052 278.265 128.06C278.155 129.085 278.128 129.901 278.217 130.386L278.22 130.398L278.221 130.409C278.348 131.349 278.842 131.885 279.363 132.485C279.615 132.775 279.897 133.107 280.074 133.502C280.262 133.92 280.327 134.39 280.199 134.946C279.991 135.855 279.419 138.163 278.35 140.383C277.329 142.503 275.781 144.697 273.527 145.353L273.307 145.412C271.21 145.917 260.867 147.449 248.918 148.862L248.019 148.968L248.408 148.151C249.652 145.541 250.346 142.632 250.346 139.536C250.346 128.526 241.601 119.624 230.827 119.624C220.053 119.624 211.309 128.526 211.309 139.536C211.309 143.864 212.662 147.855 214.93 151.099L215.479 151.885H214.52C214.191 151.885 213.86 151.895 213.531 151.905C213.205 151.914 212.879 151.923 212.57 151.923C202.576 151.923 148.573 152.726 101.523 152.191L100.556 152.18L101.125 151.397C103.539 148.078 104.966 143.976 104.966 139.536C104.966 128.526 96.2201 119.624 85.4463 119.624C74.6726 119.624 65.9277 128.526 65.9277 139.536C65.9277 143.677 67.1714 147.518 69.292 150.687L69.835 151.498L68.8594 151.464C55.2871 151.006 43.8699 150.318 36.5713 149.359L36.5596 149.357L36.5469 149.355C36.0236 149.26 35.6205 149.024 35.3613 148.667C35.1076 148.318 35.0319 147.909 35.0498 147.535C35.0677 147.161 35.1791 146.792 35.3359 146.482C35.4901 146.177 35.7092 145.887 35.9756 145.701C36.3209 145.46 36.8973 145.024 37.3447 144.545C37.5691 144.305 37.7419 144.074 37.8418 143.87C37.943 143.662 37.9425 143.538 37.9209 143.469V143.467C37.7689 142.975 37.4381 142.132 37.0244 141.096C36.615 140.071 36.1313 138.875 35.6865 137.702C35.2424 136.53 34.8309 135.366 34.5684 134.405C34.4374 133.925 34.3393 133.481 34.2949 133.105C34.2536 132.754 34.2461 132.368 34.3809 132.068C34.6154 131.545 35.1103 131.273 35.5645 131.107C36.0236 130.939 36.5693 130.838 37.0312 130.742C37.5241 130.639 37.923 130.542 38.2031 130.398C38.4598 130.266 38.5289 130.144 38.5361 129.994C38.5419 129.872 38.5181 129.684 38.4492 129.419C38.382 129.162 38.2798 128.861 38.1523 128.526C37.8958 127.851 37.5544 127.083 37.2168 126.291C36.8844 125.51 36.5565 124.708 36.3516 124.002C36.2489 123.649 36.173 123.305 36.1445 122.989C36.1166 122.679 36.1304 122.354 36.249 122.067L36.2539 122.057C36.4597 121.588 37.2565 120.403 39.248 118.882C41.2502 117.354 44.4791 115.47 49.5869 113.617C59.7806 109.918 77.49 106.328 107.952 105.934C108.004 105.894 108.07 105.844 108.15 105.783C108.368 105.617 108.689 105.374 109.107 105.065C109.944 104.447 111.169 103.563 112.723 102.501C115.83 100.379 120.258 97.5406 125.541 94.6782C136.095 88.96 150.114 83.1156 163.858 82.73Z" fill="#F4F7FA" stroke="#99A0AE" stroke-miterlimit="10"/>
<mask id="mask0_491_9481" style="mask-type:luminance" maskUnits="userSpaceOnUse" x="34" y="83" width="246" height="69">
<path d="M279.712 134.834C279.3 136.63 277.463 143.893 273.189 144.925C271.127 145.422 260.818 146.951 248.859 148.366C250.134 145.69 250.846 142.708 250.846 139.536C250.846 128.259 241.886 119.123 230.827 119.123C219.768 119.123 210.808 128.259 210.808 139.536C210.808 143.97 212.195 148.06 214.52 151.386C213.845 151.386 213.17 151.424 212.57 151.424C202.561 151.424 148.577 152.227 101.529 151.691C104.003 148.289 105.465 144.084 105.465 139.536C105.465 128.259 96.5057 119.123 85.4465 119.123C74.3874 119.123 65.4276 128.259 65.4276 139.536C65.4276 143.779 66.7023 147.716 68.8766 150.965C55.3057 150.506 43.9092 149.818 36.6364 148.863C34.9494 148.557 35.5493 146.607 36.2615 146.11C36.9738 145.613 38.6983 144.276 38.3984 143.32C37.7611 141.256 34.2372 133.611 34.837 132.273C35.4368 130.935 38.9607 131.585 39.0357 130.017C39.1107 128.45 36.1116 123.71 36.7114 122.258C37.3487 120.805 47.0582 107.197 108.127 106.432C108.127 106.432 136.618 83.9939 163.873 83.2293C191.127 82.4648 230.977 93.5503 256.095 102.724C256.095 102.724 260.293 103.374 262.505 102.839C264.717 102.342 268.766 100.966 270.265 102.304C271.765 103.604 271.09 106.126 270.715 108.688C271.352 110.331 272.889 113.007 274.351 114.727C275.814 116.409 278.925 118.435 279.038 119.658C279.113 120.882 277.313 128.221 277.725 130.476C278.025 132.693 280.125 133.037 279.712 134.834Z" fill="white"/>
</mask>
<g mask="url(#mask0_491_9481)">
<path d="M107.865 106.012C107.977 106.241 108.165 106.394 108.427 106.394C110.227 106.432 117.499 107.006 119.449 107.082C119.749 107.082 120.049 107.006 120.274 106.853C122.336 105.438 132.12 98.6343 134.069 97.4875C135.831 96.4554 143.891 92.0977 146.965 90.4922C147.303 90.3011 147.19 89.7659 146.816 89.7659L134.407 89.1161C134.407 89.1161 113.676 100.813 111.314 100.89C109.027 100.928 106.44 102.648 107.865 106.012Z" fill="#CACFD8" fill-opacity="0.46"/>
</g>
<mask id="mask1_491_9481" style="mask-type:luminance" maskUnits="userSpaceOnUse" x="34" y="82" width="247" height="71">
<path d="M279.712 134.834C279.3 136.63 277.463 143.893 273.189 144.925C271.127 145.422 260.818 146.951 248.859 148.366C250.134 145.69 250.846 142.708 250.846 139.536C250.846 128.259 241.886 119.123 230.827 119.123C219.768 119.123 210.808 128.259 210.808 139.536C210.808 143.97 212.195 148.06 214.52 151.386C213.845 151.386 213.17 151.424 212.57 151.424C202.561 151.424 148.577 152.227 101.529 151.691C104.003 148.289 105.465 144.084 105.465 139.536C105.465 128.259 96.5057 119.123 85.4465 119.123C74.3874 119.123 65.4276 128.259 65.4276 139.536C65.4276 143.779 66.7023 147.716 68.8766 150.965C55.3057 150.506 43.9092 149.818 36.6364 148.863C34.9494 148.557 35.5493 146.607 36.2615 146.11C36.9738 145.613 38.6983 144.276 38.3984 143.32C37.7611 141.256 34.2372 133.611 34.837 132.273C35.4368 130.935 38.9607 131.585 39.0357 130.017C39.1107 128.45 36.1116 123.71 36.7114 122.258C37.3487 120.805 47.0582 107.197 108.127 106.432C108.127 106.432 136.618 83.9939 163.873 83.2293C191.127 82.4648 230.977 93.5503 256.095 102.724C256.095 102.724 260.293 103.374 262.505 102.839C264.717 102.342 268.766 100.966 270.265 102.304C271.765 103.604 271.09 106.126 270.715 108.688C271.352 110.331 272.889 113.007 274.351 114.727C275.814 116.409 278.925 118.435 279.038 119.658C279.113 120.882 277.313 128.221 277.725 130.476C278.025 132.693 280.125 133.037 279.712 134.834Z" fill="white" stroke="white"/>
</mask>
<g mask="url(#mask1_491_9481)">
<path d="M102.879 142.364C104.004 142.25 170.546 140.185 173.282 140.071C175.982 139.956 215.869 138.389 215.869 138.389L221.755 163.771C221.755 163.771 92.6445 161.859 93.0194 161.095C93.3943 160.33 102.879 142.364 102.879 142.364Z" fill="#CACFD8" stroke="#CACFD8" stroke-miterlimit="10"/>
</g>
<path d="M105.428 139.536C105.428 144.084 103.966 148.289 101.492 151.691C97.8557 156.699 92.0075 159.986 85.4095 159.986C78.5116 159.986 72.4385 156.431 68.8396 151.003C66.6652 147.754 65.3906 143.817 65.3906 139.574C65.3906 128.297 74.3504 119.161 85.4095 119.161C96.4687 119.161 105.428 128.259 105.428 139.536Z" fill="#CACFD8" stroke="#99A0AE" stroke-miterlimit="10"/>
<path d="M85.3717 152.685C92.494 152.685 98.2677 146.798 98.2677 139.536C98.2677 132.273 92.494 126.386 85.3717 126.386C78.2493 126.386 72.4756 132.273 72.4756 139.536C72.4756 146.798 78.2493 152.685 85.3717 152.685Z" fill="#E7E9ED" stroke="#E7E9ED" stroke-miterlimit="10"/>
<path d="M82.7104 127.915C83.0853 127.839 83.4227 128.144 83.3477 128.527L82.523 133.076C82.3355 134.031 81.4733 134.681 80.4986 134.566L75.8875 133.955C75.5126 133.916 75.2877 133.458 75.5126 133.114C77.1246 130.553 79.7113 128.641 82.7104 127.915Z" fill="#CACFD8"/>
<path d="M95.2695 133.19C95.4944 133.534 95.2695 133.955 94.8946 134.031L90.5834 134.605C89.6462 134.719 88.7464 134.069 88.559 133.114L87.7343 128.68C87.6593 128.297 88.0342 127.953 88.4091 128.068C91.2957 128.794 93.7324 130.667 95.2695 133.19Z" fill="#CACFD8"/>
<path d="M97.1057 139.574C97.1057 142.403 96.131 145.04 94.519 147.066C94.2565 147.372 93.8067 147.295 93.6192 146.951L91.7073 142.861C91.295 141.982 91.6323 140.912 92.4946 140.453L96.3184 138.312C96.6558 138.121 97.0682 138.351 97.1057 138.733C97.0682 139 97.1057 139.268 97.1057 139.574Z" fill="#CACFD8"/>
<path d="M90.0953 149.665C90.3578 149.933 90.2828 150.392 89.9454 150.545C88.5583 151.156 86.9838 151.5 85.3718 151.5C83.8347 151.5 82.3727 151.194 81.0606 150.659C80.6857 150.506 80.6107 150.048 80.9106 149.78L84.3221 146.493C85.0344 145.805 86.1216 145.805 86.7963 146.493L90.0953 149.665Z" fill="#CACFD8"/>
<path d="M79.4112 142.861L77.3868 147.219C77.2368 147.563 76.7495 147.639 76.5245 147.334C74.7626 145.231 73.7129 142.517 73.7129 139.536C73.7129 139.192 73.7129 138.848 73.7504 138.542C73.7879 138.16 74.2002 137.93 74.5376 138.121L78.6989 140.415C79.4861 140.912 79.8235 141.944 79.4112 142.861Z" fill="#CACFD8"/>
<path d="M42.822 121.837L64.3404 120.079C65.0527 120.041 65.3901 120.92 64.8653 121.378L58.6797 126.692C58.4547 126.883 58.1923 126.998 57.8924 127.036L46.4209 127.877C45.9336 127.915 45.4837 127.686 45.1838 127.265L42.2972 122.984C41.9598 122.525 42.2597 121.875 42.822 121.837Z" fill="#CACFD8" fill-opacity="0.46"/>
<path d="M43.947 136.898L41.8476 145.04C41.7726 145.308 41.9976 145.575 42.26 145.575L50.7699 145.078C52.6443 144.964 54.2189 143.664 54.7437 141.829L56.0558 137.127C56.2432 136.478 55.7559 135.866 55.1186 135.904L44.6218 136.325C44.3219 136.363 44.022 136.592 43.947 136.898Z" fill="#CACFD8" fill-opacity="0.46"/>
<path d="M127.809 107.503C127.434 107.503 127.284 107.044 127.546 106.776C131.22 103.642 146.44 91.2567 160.011 89.5748C175.457 87.6635 198.512 89.4219 218.793 96.4172C219.056 96.4936 219.168 96.7994 219.056 97.0288C218.493 98.252 216.731 101.616 213.995 102.724C210.658 104.101 185.616 105.821 173.882 106.126C163.348 106.394 149.065 106.929 146.215 107.044C145.953 107.044 145.766 106.815 145.803 106.585C145.99 105.63 146.253 103.451 145.391 102.38C144.266 100.966 138.193 101.234 136.506 102.189C135.006 103.03 132.57 106.509 132.007 107.311C131.932 107.426 131.82 107.464 131.67 107.464H127.809V107.503Z" fill="#CACFD8" fill-opacity="0.46"/>
<path d="M177.331 114.192L192.139 113.886C192.589 113.886 192.851 114.345 192.626 114.727L192.027 115.721C191.727 116.18 191.239 116.486 190.677 116.486L179.28 116.677C178.793 116.677 178.343 116.486 178.006 116.065L176.994 114.804C176.844 114.574 176.994 114.192 177.331 114.192Z" fill="#CACFD8" stroke="#CACFD8" stroke-miterlimit="10"/>
<path d="M121.22 77.5558C121.22 77.5558 113.102 75.1373 110.664 83.2196C113.101 75.1374 105 72.6639 105 72.6639C105 72.6639 113.118 75.0821 115.556 67C113.118 75.0821 121.22 77.5558 121.22 77.5558Z" fill="#F4F7FA" stroke="#99A0AE" stroke-linecap="round" stroke-linejoin="round"/>
<path d="M62.4997 88.6667C77.2273 88.6667 89.1663 76.7276 89.1663 62C89.1663 47.2724 77.2273 35.3333 62.4997 35.3333C47.7721 35.3333 35.833 47.2724 35.833 62C35.833 76.7276 47.7721 88.6667 62.4997 88.6667Z" fill="#F4F7FA" stroke="#99A0AE" stroke-linecap="round" stroke-linejoin="round"/>
<path d="M62.5 48V76" stroke="#99A0AE" stroke-linecap="round" stroke-linejoin="round"/>
<path d="M48.5 62H76.5" stroke="#99A0AE" stroke-linecap="round" stroke-linejoin="round"/>
<path d="M169.012 35.0002C169.012 35.0002 160.036 45.5309 170.5 54.5123C160.036 45.5307 150.988 56 150.988 56C150.988 56 159.964 45.4693 149.5 36.4877C159.964 45.4693 169.012 35.0002 169.012 35.0002Z" fill="#F4F7FA" stroke="#99A0AE" stroke-linecap="round" stroke-linejoin="round"/>
</g>
<defs>
<clipPath id="clip0_491_9481">
<rect x="0.5" width="200" height="200" rx="100" fill="white"/>
</clipPath>
</defs>
</svg>
