<svg width="201" height="200" viewBox="0 0 201 200" fill="none" xmlns="http://www.w3.org/2000/svg">
<rect x="0.5" width="200" height="200" rx="100" fill="#EAEEF4"/>
<path d="M45.5 45C45.5 43.8954 46.3954 43 47.5 43H121.5C122.605 43 123.5 43.8954 123.5 45V75H45.5V45Z" fill="#CACFD8" stroke="#99A0AE"/>
<rect x="53.5" y="43" width="62" height="32" fill="#F4F7FA" stroke="#99A0AE"/>
<path d="M40.5 78.4727C40.5 76.2635 42.2909 74.4727 44.5 74.4727H124.5C126.709 74.4727 128.5 76.2635 128.5 78.4727V137C128.5 148.046 119.546 157 108.5 157H60.5C49.4543 157 40.5 148.046 40.5 137V78.4727Z" fill="#F4F7FA" stroke="#99A0AE"/>
<g clip-path="url(#clip0_485_3926)">
<path d="M66.1377 127.07H68.3699C69.4568 127.07 70.2681 127.807 70.2681 128.799C70.2681 129.791 69.4515 130.528 68.3699 130.528H67.1239V132.387H66.1377V127.07ZM67.1239 129.661H68.3752C68.8789 129.661 69.2554 129.287 69.2554 128.799C69.2554 128.306 68.8736 127.937 68.3752 127.937H67.1239V129.661ZM72.3783 129.863C72.3783 128.731 73.179 127.973 74.3719 127.968V128.83C73.7675 128.83 73.3592 129.24 73.3592 129.858V132.387H72.373V129.863H72.3783ZM78.6508 132.511C77.373 132.511 76.339 131.494 76.339 130.247C76.339 129.007 77.3783 127.994 78.6508 127.994C79.9233 127.994 80.9625 129.007 80.9625 130.247C80.9625 131.494 79.9286 132.511 78.6508 132.511ZM77.3571 130.247C77.3571 131.047 77.9456 131.649 78.6508 131.649C79.356 131.649 79.9445 131.047 79.9445 130.247C79.9445 129.458 79.356 128.856 78.6508 128.856C77.9456 128.856 77.3571 129.458 77.3571 130.247ZM83.2743 127.07H84.2605V128.067H85.0664V128.929H84.2605V132.387H83.2743V127.07ZM91.5509 130.886C91.2752 131.821 90.3898 132.516 89.3452 132.516C88.0674 132.516 87.0335 131.499 87.0335 130.253C87.0335 129.012 88.0727 127.999 89.3452 127.999C90.517 127.999 91.8001 128.965 91.6252 130.569H88.0833C88.2106 131.203 88.7355 131.654 89.3452 131.654C89.8383 131.654 90.2837 131.353 90.4905 130.891H91.5509V130.886ZM88.1257 129.77L90.5488 129.765C90.3739 129.219 89.8967 128.861 89.3452 128.861C88.7938 128.856 88.3113 129.225 88.1257 129.77ZM93.8839 128.067H94.8701V130.59C94.8701 131.208 95.2783 131.618 95.8828 131.618C96.4872 131.618 96.8955 131.208 96.8955 130.59V128.067H97.8817V130.59C97.8817 131.722 97.0811 132.48 95.8881 132.485C94.6951 132.48 93.8945 131.722 93.8945 130.59V128.067H93.8839ZM101.031 130.876C101.031 131.322 101.291 131.654 101.853 131.654C102.282 131.654 102.537 131.447 102.537 131.177C102.537 130.227 100.183 130.912 100.183 129.23C100.183 128.503 100.867 127.963 101.784 127.963C102.723 127.963 103.417 128.581 103.417 129.318H102.404C102.404 129.074 102.139 128.825 101.789 128.825C101.439 128.825 101.174 128.996 101.174 129.23C101.174 130.061 103.566 129.547 103.566 131.073C103.566 131.904 102.807 132.521 101.795 132.521C100.803 132.521 100.056 131.815 100.056 130.881H101.031V130.876Z" fill="#CACFD8"/>
<mask id="mask0_485_3926" style="mask-type:luminance" maskUnits="userSpaceOnUse" x="76" y="98" width="21" height="25">
<path d="M96.8636 98.9509H76.042V122.989H96.8636V98.9509Z" fill="white"/>
</mask>
<g mask="url(#mask0_485_3926)">
<path d="M88.7514 104.293C88.6454 104.288 88.5393 104.283 88.4333 104.278C89.7005 104.833 90.2413 105.43 90.1724 106.536C90.1618 106.692 90.1353 106.853 90.0929 107.003C89.5892 109.423 87.691 111.448 85.0028 113.088C84.7059 113.27 84.4036 113.447 84.0908 113.618L88.428 113.597C89.6369 113.592 90.5011 113.509 91.3866 112.969C92.9666 112.076 93.6983 111.448 94.6262 110.025C95.1299 109.283 95.4162 108.343 95.4958 107.159C93.6665 105.155 92.1024 104.475 88.7514 104.293Z" fill="#CACFD8"/>
</g>
<mask id="mask1_485_3926" style="mask-type:luminance" maskUnits="userSpaceOnUse" x="76" y="98" width="21" height="25">
<path d="M96.8636 98.9509H76.042V122.989H96.8636V98.9509Z" fill="white"/>
</mask>
<g mask="url(#mask1_485_3926)">
<path d="M95.3522 104.252C95.2726 103.883 95.1613 103.52 95.0128 103.172C94.8007 102.663 94.525 102.185 94.191 101.744C93.56 100.913 92.7488 100.233 91.8209 99.7401C90.2621 98.9301 89.1963 98.9509 88.1359 98.9509H77.7967C77.7755 100.592 78.1679 101.35 79.1912 102.575C80.4319 103.774 81.2325 104.112 82.786 104.273H88.3957C88.5177 104.278 88.6343 104.283 88.751 104.288C92.1019 104.475 93.6714 105.155 95.4953 107.154C95.5059 105.742 95.5377 105.342 95.3522 104.252Z" fill="#CACFD8"/>
</g>
<mask id="mask2_485_3926" style="mask-type:luminance" maskUnits="userSpaceOnUse" x="76" y="98" width="21" height="25">
<path d="M96.8636 98.9509H76.042V122.989H96.8636V98.9509Z" fill="white"/>
</mask>
<g mask="url(#mask2_485_3926)">
<path d="M90.0927 106.998C89.2709 107.917 88.2317 108.25 87.9347 108.25H81.3495C81.026 108.265 80.8935 108.281 80.7556 108.317C78.5711 108.909 77.9031 110.036 77.8447 112.33V117.808C78.1204 120.637 79.1544 121.401 81.6517 122.636C82.3144 122.922 82.6697 122.989 83.2847 122.984V113.613H84.0907C84.4035 113.441 84.711 113.265 85.0026 113.083C87.6908 111.443 89.5943 109.418 90.0927 106.998Z" fill="#CACFD8"/>
</g>
</g>
<path d="M24.7196 110.556C24.7196 110.556 16.6015 108.137 14.1638 116.22C16.6014 108.137 8.5 105.664 8.5 105.664C8.5 105.664 16.6182 108.082 19.0557 100C16.6182 108.082 24.7196 110.556 24.7196 110.556Z" fill="#F4F7FA" stroke="#99A0AE" stroke-linecap="round" stroke-linejoin="round"/>
<path d="M166.571 51.0001C166.571 51.0001 159.638 59.1337 167.72 66.0705C159.637 59.1335 152.649 67.2196 152.649 67.2196C152.649 67.2196 159.582 59.0861 151.5 52.1491C159.582 59.0861 166.571 51.0001 166.571 51.0001Z" fill="#F4F7FA" stroke="#99A0AE" stroke-linecap="round" stroke-linejoin="round"/>
<path d="M136.667 149.833C153.603 149.833 167.333 136.103 167.333 119.167C167.333 102.23 153.603 88.5 136.667 88.5C119.73 88.5 106 102.23 106 119.167C106 136.103 119.73 149.833 136.667 149.833Z" fill="#F4F7FA" stroke="#99A0AE" stroke-linecap="round" stroke-linejoin="round"/>
<path d="M175 157.502L158.325 140.827" stroke="#99A0AE" stroke-linecap="round" stroke-linejoin="round"/>
<path d="M124.5 107L148.5 131L124.5 107Z" fill="#CACFD8"/>
<path d="M124.5 107L148.5 131" stroke="#99A0AE" stroke-linecap="round" stroke-linejoin="round"/>
<path d="M148.5 107L124.5 131L148.5 107Z" fill="#CACFD8"/>
<path d="M148.5 107L124.5 131" stroke="#99A0AE" stroke-linecap="round" stroke-linejoin="round"/>
<defs>
<clipPath id="clip0_485_3926">
<rect width="37.4173" height="33.5706" fill="white" transform="translate(66.1377 98.9509)"/>
</clipPath>
</defs>
</svg>
