<svg width="201" height="200" viewBox="0 0 201 200" fill="none" xmlns="http://www.w3.org/2000/svg">
<rect x="0.5" width="200" height="200" rx="100" fill="#EAEEF4"/>
<rect x="46.5" y="54.6006" width="94.9551" height="106.415" rx="4.46724" fill="#CACFD8" stroke="#99A0AE" stroke-linejoin="round"/>
<rect x="55.457" y="42" width="94.9551" height="106.415" rx="4.46724" fill="#EAEEF4" stroke="#99A0AE" stroke-linejoin="round"/>
<rect x="66.9941" y="55.6772" width="72.5054" height="71.8428" fill="#F4F7FA" stroke="#99A0AE" stroke-linejoin="round"/>
<mask id="mask0_1922_14562" style="mask-type:alpha" maskUnits="userSpaceOnUse" x="66" y="57" width="74" height="72">
<rect x="66.5" y="57" width="72.5054" height="71.8428" fill="white"/>
</mask>
<g mask="url(#mask0_1922_14562)">
<path d="M127.999 85.1455C139.051 84.8317 155.13 89.3619 165.251 93.0996C165.257 93.1005 165.264 93.1025 165.271 93.1035C165.317 93.11 165.384 93.1186 165.467 93.1289C165.633 93.1496 165.863 93.1756 166.119 93.1943C166.652 93.2332 167.227 93.2369 167.588 93.1484L167.596 93.1465C167.984 93.0581 168.687 92.8516 169.295 92.752C169.61 92.7003 169.944 92.6676 170.254 92.6934C170.559 92.7187 170.899 92.805 171.165 93.0449H171.164C171.629 93.4567 171.716 94.0327 171.703 94.5361C171.692 94.9841 171.596 95.5052 171.526 95.9551C171.788 96.5818 172.339 97.5389 172.857 98.1562C173.124 98.4655 173.535 98.8002 173.956 99.1807C174.155 99.3601 174.355 99.5513 174.512 99.7373C174.634 99.8827 174.787 100.091 174.841 100.335L174.858 100.441V100.449L174.859 100.456C174.866 100.57 174.851 100.714 174.835 100.844C174.817 100.985 174.791 101.155 174.76 101.339C174.701 101.687 174.612 102.181 174.538 102.616C174.46 103.076 174.388 103.539 174.346 103.94C174.313 104.254 174.301 104.498 174.31 104.665L174.324 104.805L174.326 104.816L174.327 104.827C174.365 105.112 174.503 105.27 174.719 105.521C174.818 105.636 174.959 105.801 175.051 106.007C175.152 106.235 175.184 106.491 175.119 106.779C175.034 107.156 174.798 108.122 174.354 109.057C173.952 109.901 173.31 110.868 172.326 111.207L172.125 111.267C171.26 111.478 167.077 112.104 162.274 112.679L161.378 112.786L161.763 111.97C162.245 110.945 162.515 109.802 162.515 108.585C162.515 104.252 159.118 100.769 154.958 100.769C150.798 100.769 147.402 104.252 147.402 108.585C147.402 110.287 147.927 111.855 148.807 113.129L149.349 113.912H148.396C148.268 113.912 148.14 113.916 148.007 113.92C147.877 113.924 147.741 113.928 147.611 113.928C143.598 113.928 121.853 114.255 102.918 114.037L101.957 114.026L102.518 113.245C103.454 111.942 104.008 110.331 104.008 108.585C104.008 104.252 100.611 100.769 96.4512 100.769C92.2917 100.769 88.8955 104.252 88.8955 108.585C88.8956 110.214 89.3782 111.722 90.2002 112.966L90.7344 113.774L89.7656 113.741C84.3027 113.554 79.6951 113.273 76.7422 112.88L76.7305 112.879L76.7178 112.876C76.445 112.826 76.2086 112.696 76.0518 112.478C75.9007 112.267 75.8618 112.029 75.8711 111.83C75.8805 111.631 75.9388 111.441 76.0176 111.283C76.0935 111.131 76.2094 110.967 76.3691 110.854L76.6113 110.67C76.7008 110.596 76.7935 110.512 76.873 110.426C76.952 110.34 76.9986 110.271 77.0215 110.225C76.9588 110.032 76.841 109.72 76.6865 109.329C76.5224 108.913 76.3257 108.422 76.1455 107.94C75.9661 107.461 75.7969 106.977 75.6875 106.571C75.633 106.369 75.5896 106.173 75.5693 105.999C75.552 105.85 75.5382 105.623 75.627 105.423L75.6875 105.31C75.843 105.063 76.0912 104.94 76.2725 104.873C76.4835 104.795 76.7318 104.748 76.9053 104.712C77.0788 104.675 77.1906 104.645 77.2637 104.614C77.2596 104.593 77.2557 104.567 77.248 104.537C77.2247 104.446 77.1882 104.334 77.1387 104.202C77.0382 103.934 76.9052 103.632 76.7666 103.303C76.6329 102.985 76.4941 102.643 76.4062 102.337C76.3622 102.184 76.3262 102.023 76.3125 101.869C76.2993 101.721 76.3031 101.535 76.376 101.356L76.3799 101.347C76.5879 100.867 77.782 99.2655 81.916 97.7471C86.0502 96.2286 93.1861 94.7681 105.401 94.6006L105.404 94.5996C105.493 94.531 105.624 94.4316 105.794 94.3047C106.133 94.0508 106.629 93.6887 107.258 93.2539C108.515 92.3846 110.305 91.222 112.442 90.0498C116.704 87.7123 122.396 85.3046 127.999 85.1455Z" fill="#EAEEF4" stroke="#99A0AE" stroke-miterlimit="10"/>
<mask id="mask1_1922_14562" style="mask-type:luminance" maskUnits="userSpaceOnUse" x="76" y="85" width="99" height="29">
<path d="M174.632 106.669C174.466 107.401 173.726 110.36 172.006 110.781C171.177 110.983 167.028 111.606 162.215 112.182C162.728 111.092 163.015 109.877 163.015 108.585C163.015 103.991 159.409 100.269 154.958 100.269C150.508 100.269 146.902 103.991 146.902 108.585C146.902 110.391 147.46 112.058 148.396 113.412C148.124 113.412 147.852 113.428 147.611 113.428C143.583 113.428 121.858 113.755 102.924 113.537C103.919 112.151 104.508 110.438 104.508 108.585C104.508 103.991 100.902 100.269 96.4514 100.269C92.0008 100.269 88.3951 103.991 88.3951 108.585C88.3951 110.313 88.908 111.917 89.783 113.241C84.3216 113.054 79.7352 112.774 76.8083 112.385C76.1294 112.26 76.3708 111.466 76.6575 111.263C76.9441 111.061 77.6381 110.516 77.5174 110.127C77.2609 109.286 75.8428 106.171 76.0842 105.626C76.3256 105.081 77.7437 105.345 77.7739 104.707C77.8041 104.068 76.5971 102.137 76.8385 101.546C77.095 100.954 81.0025 95.4097 105.579 95.0982C105.579 95.0982 117.045 85.9566 128.013 85.6451C138.981 85.3337 155.019 89.85 165.127 93.5876C165.127 93.5876 166.817 93.8523 167.707 93.6343C168.597 93.4318 170.226 92.8712 170.83 93.4163C171.433 93.9458 171.162 94.9736 171.011 96.017C171.267 96.6867 171.886 97.7768 172.474 98.4776C173.063 99.1628 174.315 99.9882 174.36 100.487C174.39 100.985 173.666 103.975 173.832 104.894C173.953 105.797 174.798 105.937 174.632 106.669Z" fill="white"/>
</mask>
<g mask="url(#mask1_1922_14562)">
<path d="M105.473 94.9269C105.518 95.0203 105.594 95.0826 105.7 95.0826C106.424 95.0982 109.351 95.3318 110.135 95.3629C110.256 95.3629 110.376 95.3318 110.467 95.2695C111.297 94.6933 115.234 91.9212 116.019 91.454C116.728 91.0335 119.972 89.2582 121.209 88.6041C121.345 88.5262 121.299 88.3082 121.148 88.3082L116.155 88.0435C116.155 88.0435 107.812 92.8089 106.861 92.8401C105.941 92.8556 104.9 93.5564 105.473 94.9269Z" fill="#CACFD8" stroke="#CACFD8" stroke-width="0.5" stroke-miterlimit="10"/>
</g>
<mask id="mask2_1922_14562" style="mask-type:luminance" maskUnits="userSpaceOnUse" x="75" y="85" width="101" height="30">
<path d="M174.632 106.669C174.466 107.401 173.726 110.36 172.006 110.781C171.177 110.983 167.028 111.606 162.215 112.182C162.728 111.092 163.015 109.877 163.015 108.585C163.015 103.991 159.409 100.269 154.958 100.269C150.508 100.269 146.902 103.991 146.902 108.585C146.902 110.391 147.46 112.058 148.396 113.412C148.124 113.412 147.852 113.428 147.611 113.428C143.583 113.428 121.858 113.755 102.924 113.537C103.919 112.151 104.508 110.438 104.508 108.585C104.508 103.991 100.902 100.269 96.4514 100.269C92.0008 100.269 88.3951 103.991 88.3951 108.585C88.3951 110.313 88.908 111.917 89.783 113.241C84.3216 113.054 79.7352 112.774 76.8083 112.385C76.1294 112.26 76.3708 111.466 76.6575 111.263C76.9441 111.061 77.6381 110.516 77.5174 110.127C77.2609 109.286 75.8428 106.171 76.0842 105.626C76.3256 105.081 77.7437 105.345 77.7739 104.707C77.8041 104.068 76.5971 102.137 76.8385 101.546C77.095 100.954 81.0025 95.4097 105.579 95.0982C105.579 95.0982 117.045 85.9566 128.013 85.6451C138.981 85.3337 155.019 89.85 165.127 93.5876C165.127 93.5876 166.817 93.8523 167.707 93.6343C168.597 93.4318 170.226 92.8712 170.83 93.4163C171.433 93.9458 171.162 94.9736 171.011 96.017C171.267 96.6867 171.886 97.7768 172.474 98.4776C173.063 99.1628 174.315 99.9882 174.36 100.487C174.39 100.985 173.666 103.975 173.832 104.894C173.953 105.797 174.798 105.937 174.632 106.669Z" fill="white" stroke="white"/>
</mask>
<g mask="url(#mask2_1922_14562)">
<path d="M103.467 109.737C103.919 109.691 130.698 108.85 131.8 108.803C132.886 108.756 148.939 108.118 148.939 108.118L151.307 118.458C151.307 118.458 99.348 117.68 99.4989 117.368C99.6497 117.057 103.467 109.737 103.467 109.737Z" fill="#99A0AE" stroke="#99A0AE" stroke-miterlimit="10"/>
</g>
<path d="M104.493 108.585C104.493 110.438 103.904 112.151 102.909 113.537C101.445 115.577 99.0916 116.917 96.4363 116.917C93.6603 116.917 91.2162 115.468 89.7679 113.257C88.8928 111.933 88.3799 110.329 88.3799 108.6C88.3799 104.006 91.9856 100.284 96.4363 100.284C100.887 100.284 104.493 103.991 104.493 108.585Z" fill="#99A0AE" stroke="#99A0AE" stroke-miterlimit="10"/>
<path d="M96.4213 113.942C99.2876 113.942 101.611 111.544 101.611 108.585C101.611 105.626 99.2876 103.228 96.4213 103.228C93.555 103.228 91.2314 105.626 91.2314 108.585C91.2314 111.544 93.555 113.942 96.4213 113.942Z" fill="#CACFD8" stroke="#CACFD8" stroke-miterlimit="10"/>
<path d="M95.3498 103.851C95.5007 103.819 95.6364 103.944 95.6063 104.1L95.2744 105.953C95.1989 106.342 94.8519 106.607 94.4597 106.56L92.604 106.311C92.4531 106.296 92.3626 106.109 92.4531 105.968C93.1018 104.925 94.1428 104.146 95.3498 103.851Z" fill="#99A0AE"/>
<path d="M100.404 106C100.495 106.14 100.404 106.311 100.253 106.342L98.5182 106.576C98.141 106.623 97.7789 106.358 97.7035 105.969L97.3716 104.162C97.3414 104.006 97.4923 103.866 97.6431 103.913C98.8048 104.209 99.7855 104.972 100.404 106Z" fill="#99A0AE"/>
<path d="M101.143 108.601C101.143 109.753 100.751 110.827 100.102 111.653C99.9968 111.777 99.8157 111.746 99.7403 111.606L98.9709 109.94C98.8049 109.582 98.9407 109.146 99.2877 108.959L100.827 108.087C100.962 108.009 101.128 108.102 101.143 108.258C101.128 108.367 101.143 108.476 101.143 108.601Z" fill="#99A0AE"/>
<path d="M98.322 112.712C98.4276 112.821 98.3975 113.008 98.2617 113.07C97.7035 113.319 97.0698 113.459 96.4211 113.459C95.8025 113.459 95.2141 113.335 94.6861 113.117C94.5352 113.054 94.505 112.868 94.6257 112.759L95.9986 111.419C96.2853 111.139 96.7228 111.139 96.9944 111.419L98.322 112.712Z" fill="#99A0AE"/>
<path d="M94.0222 109.94L93.2075 111.715C93.1472 111.855 92.951 111.886 92.8605 111.762C92.1514 110.905 91.729 109.799 91.729 108.585C91.729 108.445 91.729 108.304 91.7441 108.18C91.7592 108.024 91.9251 107.931 92.0609 108.008L93.7356 108.943C94.0524 109.145 94.1882 109.566 94.0222 109.94Z" fill="#99A0AE"/>
<path d="M79.2976 101.374L87.9575 100.658C88.2441 100.642 88.3799 101 88.1687 101.187L85.6794 103.352C85.5888 103.43 85.4832 103.477 85.3625 103.492L80.746 103.835C80.5498 103.85 80.3688 103.757 80.2481 103.586L79.0864 101.841C78.9506 101.654 79.0713 101.39 79.2976 101.374Z" fill="#CACFD8" stroke="#CACFD8" stroke-width="0.5" stroke-miterlimit="10"/>
<path d="M79.7502 107.51L78.9053 110.827C78.8751 110.936 78.9656 111.045 79.0713 111.045L82.496 110.843C83.2503 110.796 83.884 110.267 84.0952 109.519L84.6232 107.604C84.6987 107.339 84.5025 107.09 84.246 107.105L80.0217 107.276C79.901 107.292 79.7803 107.386 79.7502 107.51Z" fill="#CACFD8" stroke="#CACFD8" stroke-width="0.5" stroke-miterlimit="10"/>
<path d="M113.5 95.5342C113.349 95.5342 113.288 95.3473 113.394 95.2383C114.872 93.9613 120.998 88.9155 126.459 88.2303C132.675 87.4516 141.953 88.168 150.115 91.0179C150.221 91.049 150.266 91.1736 150.221 91.2671C149.995 91.7654 149.286 93.1359 148.184 93.5875C146.842 94.1481 136.764 94.849 132.041 94.9735C127.802 95.0826 122.054 95.3006 120.907 95.3473C120.802 95.3473 120.726 95.2539 120.741 95.1604C120.817 94.7711 120.922 93.8834 120.575 93.4473C120.123 92.8711 117.679 92.9801 117 93.3695C116.396 93.7121 115.416 95.1293 115.189 95.4563C115.159 95.503 115.114 95.5186 115.054 95.5186H113.5V95.5342Z" fill="#CACFD8" stroke="#CACFD8" stroke-miterlimit="10"/>
<path d="M133.429 98.2594L139.389 98.1348C139.57 98.1348 139.675 98.3216 139.585 98.4774L139.343 98.8823C139.223 99.0692 139.026 99.1938 138.8 99.1938L134.214 99.2716C134.018 99.2716 133.837 99.1938 133.701 99.0224L133.293 98.5085C133.233 98.4151 133.293 98.2594 133.429 98.2594Z" fill="#99A0AE" stroke="#99A0AE" stroke-miterlimit="10"/>
</g>
<path d="M182.083 66.0002C182.083 66.0002 173.534 76.0294 183.5 84.5831C173.534 76.0293 164.917 86 164.917 86C164.917 86 173.466 75.9707 163.5 67.4169C173.466 75.9707 182.083 66.0002 182.083 66.0002Z" fill="#F4F7FA" stroke="#99A0AE" stroke-linecap="round" stroke-linejoin="round"/>
<path d="M32.7196 103.556C32.7196 103.556 24.6015 101.137 22.1638 109.22C24.6014 101.137 16.5 98.6639 16.5 98.6639C16.5 98.6639 24.6182 101.082 27.0557 93C24.6182 101.082 32.7196 103.556 32.7196 103.556Z" fill="#F4F7FA" stroke="#99A0AE" stroke-linecap="round" stroke-linejoin="round"/>
<path d="M76.0752 65.5757L77.1889 66.6894" stroke="#99A0AE" stroke-linecap="round" stroke-linejoin="round"/>
<path d="M73 73H74.575" stroke="#99A0AE" stroke-linecap="round" stroke-linejoin="round"/>
<path d="M76.0752 80.4247L77.1889 79.311" stroke="#99A0AE" stroke-linecap="round" stroke-linejoin="round"/>
<path d="M90.9247 80.4247L89.811 79.311" stroke="#99A0AE" stroke-linecap="round" stroke-linejoin="round"/>
<path d="M93.9998 73H92.4248" stroke="#99A0AE" stroke-linecap="round" stroke-linejoin="round"/>
<path d="M90.9247 65.5757L89.811 66.6894" stroke="#99A0AE" stroke-linecap="round" stroke-linejoin="round"/>
<path d="M83.5 62.5V64.075" stroke="#99A0AE" stroke-linecap="round" stroke-linejoin="round"/>
<path d="M83.5 79C86.8137 79 89.5 76.3137 89.5 73C89.5 69.6863 86.8137 67 83.5 67C80.1863 67 77.5 69.6863 77.5 73C77.5 76.3137 80.1863 79 83.5 79Z" fill="#EAEEF4" stroke="#99A0AE" stroke-linejoin="round"/>
<path d="M83.5 83.5003V81.9253" stroke="#99A0AE" stroke-linecap="round" stroke-linejoin="round"/>
</svg>
