<svg width="14" height="14" viewBox="0 0 14 14" fill="none" xmlns="http://www.w3.org/2000/svg">
<path d="M6.55002 1.78736C6.73319 1.4149 7.26421 1.4149 7.44738 1.78736L8.86544 4.67091C8.93807 4.81859 9.07871 4.92108 9.24154 4.94497L12.4166 5.41077C12.8259 5.47083 12.9894 5.97376 12.6935 6.26301L10.3945 8.51058C10.2771 8.62537 10.2235 8.79048 10.2512 8.95233L10.7933 12.1251C10.8632 12.5338 10.4338 12.845 10.0671 12.6515L7.2321 11.155C7.08605 11.0779 6.91135 11.0779 6.76529 11.155L3.93032 12.6515C3.56362 12.845 3.13422 12.5338 3.20406 12.1251L3.7462 8.95233C3.77386 8.79048 3.72029 8.62536 3.60288 8.51058L1.30388 6.26301C1.00801 5.97376 1.17145 5.47083 1.58083 5.41077L4.75585 4.94497C4.91868 4.92108 5.05933 4.81859 5.13196 4.67091L6.55002 1.78736Z" fill="#FF6D1A" stroke="#FF6D1A" stroke-linecap="round" stroke-linejoin="round"/>
</svg>
