<svg width="32" height="24" viewBox="0 0 32 24" fill="none" xmlns="http://www.w3.org/2000/svg">
<g clip-path="url(#clip0_2379_13036)">
<rect width="32" height="24" fill="white"/>
<path fill-rule="evenodd" clip-rule="evenodd" d="M0 0V24H32V0H0Z" fill="#F7FCFF"/>
<mask id="mask0_2379_13036" style="mask-type:luminance" maskUnits="userSpaceOnUse" x="0" y="0" width="32" height="24">
<path fill-rule="evenodd" clip-rule="evenodd" d="M0 0V24H32V0H0Z" fill="white"/>
</mask>
<g mask="url(#mask0_2379_13036)">
<path fill-rule="evenodd" clip-rule="evenodd" d="M0 0V12H32V0H0Z" fill="#E31D1C"/>
<path d="M3.85107 6.37402C3.85113 2.15856 7.49533 1.84765 8.86865 2.19531C8.86865 2.19531 6.04254 3.29502 6.04248 6.37402C6.04248 9.4531 8.86865 10.5898 8.86865 10.5898C7.44025 11.3848 3.85107 10.5896 3.85107 6.37402ZM10.7896 8.37207H11.7026L11.0288 9.12598L11.2319 10.0811L10.4028 9.5918L9.59229 10.0811L9.77783 9.12598L9.10205 8.41113L10.0161 8.37207L10.4028 7.48047L10.7896 8.37207ZM13.7358 8.31738H14.6489L13.9751 9.07129L14.1782 10.0264L13.3491 9.53711L12.5386 10.0264L12.7241 9.07129L12.0483 8.35645L12.9624 8.31738L13.3491 7.42578L13.7358 8.31738ZM9.75635 6.00391H10.6694L9.99561 6.75684L10.1987 7.71191L9.36963 7.22266L8.55908 7.71191L8.74463 6.75684L8.06885 6.04297L8.98291 6.00391L9.36963 5.1123L9.75635 6.00391ZM15.1147 5.95996H16.0278L15.354 6.71289L15.5571 7.66797L14.728 7.17871L13.9175 7.66797L14.103 6.71289L13.4272 5.99902L14.3413 5.95996L14.728 5.06836L15.1147 5.95996ZM12.4849 4.06152H13.397L12.7231 4.81543L12.9263 5.76953L12.0981 5.28027L11.2876 5.76953L11.4722 4.81543L10.7974 4.10059L11.7114 4.06152L12.0981 3.16992L12.4849 4.06152Z" fill="#F1F9FF"/>
</g>
</g>
<defs>
<clipPath id="clip0_2379_13036">
<rect width="32" height="24" fill="white"/>
</clipPath>
</defs>
</svg>
