<svg width="32" height="24" viewBox="0 0 32 24" fill="none" xmlns="http://www.w3.org/2000/svg">
<g clip-path="url(#clip0_2379_13063)">
<rect width="32" height="24" fill="white"/>
<path fill-rule="evenodd" clip-rule="evenodd" d="M0 0H32V24H0V0Z" fill="#F7FCFF"/>
<rect x="0.0273438" y="5" width="32" height="2.9" fill="#E31D1C"/>
<rect x="0.0273438" y="10.2" width="32" height="2.9" fill="#E31D1C"/>
<rect x="0.111816" y="15.2" width="32" height="2.5" fill="#E31D1C"/>
<rect x="0.111816" y="20.2" width="32" height="2.7" fill="#E31D1C"/>
<path fill-rule="evenodd" clip-rule="evenodd" d="M0 0H32V2.5H0V0Z" fill="#E31D1C"/>
<path fill-rule="evenodd" clip-rule="evenodd" d="M0 0H16V12H0V0Z" fill="#3D58DB"/>
<path fill-rule="evenodd" clip-rule="evenodd" d="M3.59375 6.20216C3.59375 7.57838 4.24197 8.87979 5.56072 8.87979C7.5393 8.87979 7.92423 8.45797 8.84748 7.876C9.06576 8.36627 8.3295 10.4644 5.53372 10.4644C3.29746 10.4194 1.49023 8.62282 1.49023 6.20216C1.49023 3.42364 3.53381 1.9231 5.4776 1.94008C7.19363 1.94008 9.01366 2.91384 8.95788 4.15606C8.14934 3.36622 7.27139 3.36622 5.80991 3.36622C4.34842 3.36622 3.59375 4.82576 3.59375 6.20216Z" fill="#FECA00"/>
<path fill-rule="evenodd" clip-rule="evenodd" d="M11 7.30005L10.0729 8.65322L10.1183 7.01357L8.57295 7.5634L9.57342 6.26357L8 5.80005L9.57342 5.33652L8.57295 4.03669L10.1183 4.58652L10.0729 2.94688L11 4.30005L11.9271 2.94688L11.8817 4.58652L13.4271 4.03669L12.4266 5.33652L14 5.80005L12.4266 6.26357L13.4271 7.5634L11.8817 7.01357L11.9271 8.65322L11 7.30005Z" fill="#FECA00"/>
</g>
<defs>
<clipPath id="clip0_2379_13063">
<rect width="32" height="24" fill="white"/>
</clipPath>
</defs>
</svg>
