<svg width="40" height="40" viewBox="0 0 40 40" fill="none" xmlns="http://www.w3.org/2000/svg">
<path d="M10 0.5H20.5146C21.9733 0.5 23.3719 1.0799 24.4033 2.11133L33.8887 11.5967C34.9201 12.6281 35.5 14.0267 35.5 15.4854V34C35.5 37.0376 33.0376 39.5 30 39.5H10C6.96243 39.5 4.5 37.0376 4.5 34V6C4.5 2.96243 6.96243 0.5 10 0.5Z" fill="white" stroke="#CACFD8"/>
<path d="M23 1V9C23 11.2091 24.7909 13 27 13H35" stroke="#CACFD8"/>
<path d="M0 22C0 19.7909 1.79086 18 4 18H21C23.2091 18 25 19.7909 25 22V30C25 32.2091 23.2091 34 21 34H4C1.79086 34 0 32.2091 0 30V22Z" fill="#EF3C30"/>
<path d="M6.44727 26.2119H4.54785V25.4453H6.44727C6.8151 25.4453 7.11296 25.3867 7.34082 25.2695C7.56868 25.1523 7.7347 24.9896 7.83887 24.7812C7.94629 24.5729 8 24.3353 8 24.0684C8 23.8242 7.94629 23.5947 7.83887 23.3799C7.7347 23.165 7.56868 22.9925 7.34082 22.8623C7.11296 22.7288 6.8151 22.6621 6.44727 22.6621H4.76758V29H3.8252V21.8906H6.44727C6.98438 21.8906 7.43848 21.9834 7.80957 22.1689C8.18066 22.3545 8.46224 22.6117 8.6543 22.9404C8.84635 23.266 8.94238 23.6387 8.94238 24.0586C8.94238 24.5143 8.84635 24.9033 8.6543 25.2256C8.46224 25.5479 8.18066 25.7936 7.80957 25.9629C7.43848 26.1289 6.98438 26.2119 6.44727 26.2119ZM12.0576 29H10.5732L10.583 28.2334H12.0576C12.5654 28.2334 12.9886 28.1276 13.3271 27.916C13.6657 27.7012 13.9196 27.4017 14.0889 27.0176C14.2614 26.6302 14.3477 26.1777 14.3477 25.6602V25.2256C14.3477 24.8187 14.2988 24.4574 14.2012 24.1416C14.1035 23.8226 13.9603 23.554 13.7715 23.3359C13.5827 23.1146 13.3516 22.9469 13.0781 22.833C12.8079 22.7191 12.4971 22.6621 12.1455 22.6621H10.5439V21.8906H12.1455C12.611 21.8906 13.0358 21.9688 13.4199 22.125C13.804 22.278 14.1344 22.501 14.4111 22.7939C14.6911 23.0837 14.9059 23.4352 15.0557 23.8486C15.2054 24.2588 15.2803 24.721 15.2803 25.2354V25.6602C15.2803 26.1745 15.2054 26.6383 15.0557 27.0518C14.9059 27.4619 14.6895 27.8118 14.4062 28.1016C14.1263 28.3913 13.7878 28.6143 13.3906 28.7705C12.9967 28.9235 12.5524 29 12.0576 29ZM11.0762 21.8906V29H10.1338V21.8906H11.0762ZM17.6387 21.8906V29H16.6963V21.8906H17.6387ZM20.6172 25.0889V25.8604H17.4336V25.0889H20.6172ZM21.1006 21.8906V22.6621H17.4336V21.8906H21.1006Z" fill="white"/>
</svg>
