<svg width="40" height="40" viewBox="0 0 40 40" fill="none" xmlns="http://www.w3.org/2000/svg">
<path d="M10 0.5H20.5146C21.9733 0.5 23.3719 1.0799 24.4033 2.11133L33.8887 11.5967C34.9201 12.6281 35.5 14.0267 35.5 15.4854V34C35.5 37.0376 33.0376 39.5 30 39.5H10C6.96243 39.5 4.5 37.0376 4.5 34V6C4.5 2.96243 6.96243 0.5 10 0.5Z" fill="white" stroke="#CACFD8"/>
<path d="M23 1V9C23 11.2091 24.7909 13 27 13H35" stroke="#CACFD8"/>
<path d="M0 22C0 19.7909 1.79086 18 4 18H21C23.2091 18 25 19.7909 25 22V30C25 32.2091 23.2091 34 21 34H4C1.79086 34 0 32.2091 0 30V22Z" fill="#6F7788"/>
<path d="M6.45215 21.8906V29H5.52441V21.8906H6.45215ZM8.7373 21.8906V22.6621H3.24414V21.8906H8.7373ZM10.4023 21.8906L12.1113 24.6152L13.8203 21.8906H14.9189L12.6729 25.4111L14.9727 29H13.8643L12.1113 26.2217L10.3584 29H9.25L11.5498 25.4111L9.30371 21.8906H10.4023ZM18.6885 21.8906V29H17.7607V21.8906H18.6885ZM20.9736 21.8906V22.6621H15.4805V21.8906H20.9736Z" fill="white"/>
</svg>
