<svg width="40" height="40" viewBox="0 0 40 40" fill="none" xmlns="http://www.w3.org/2000/svg">
<path d="M10 0.5H20.5146C21.9733 0.5 23.3719 1.0799 24.4033 2.11133L33.8887 11.5967C34.9201 12.6281 35.5 14.0267 35.5 15.4854V34C35.5 37.0376 33.0376 39.5 30 39.5H10C6.96243 39.5 4.5 37.0376 4.5 34V6C4.5 2.96243 6.96243 0.5 10 0.5Z" fill="white" stroke="#CACFD8"/>
<path d="M23 1V9C23 11.2091 24.7909 13 27 13H35" stroke="#CACFD8"/>
<path d="M0 22C0 19.7909 1.79086 18 4 18H20C22.2091 18 24 19.7909 24 22V30C24 32.2091 22.2091 34 20 34H4C1.79086 34 0 32.2091 0 30V22Z" fill="#05AD9D"/>
<path d="M4.43555 21.8906L6.14453 24.6152L7.85352 21.8906H8.95215L6.70605 25.4111L9.00586 29H7.89746L6.14453 26.2217L4.3916 29H3.2832L5.58301 25.4111L3.33691 21.8906H4.43555ZM14.4062 28.2334V29H10.8516V28.2334H14.4062ZM11.0371 21.8906V29H10.0947V21.8906H11.0371ZM19.2744 27.2031C19.2744 27.0371 19.2484 26.8906 19.1963 26.7637C19.1475 26.6335 19.0596 26.5163 18.9326 26.4121C18.8089 26.3079 18.6364 26.2087 18.415 26.1143C18.1969 26.0199 17.9202 25.9238 17.585 25.8262C17.2334 25.722 16.916 25.6064 16.6328 25.4795C16.3496 25.3493 16.1071 25.2012 15.9053 25.0352C15.7035 24.8691 15.5488 24.6787 15.4414 24.4639C15.334 24.249 15.2803 24.0033 15.2803 23.7266C15.2803 23.4499 15.3372 23.1943 15.4512 22.96C15.5651 22.7256 15.7279 22.5221 15.9395 22.3496C16.1543 22.1738 16.4098 22.0371 16.7061 21.9395C17.0023 21.8418 17.3327 21.793 17.6973 21.793C18.2311 21.793 18.6836 21.8955 19.0547 22.1006C19.429 22.3024 19.7139 22.5677 19.9092 22.8965C20.1045 23.222 20.2021 23.5703 20.2021 23.9414H19.2646C19.2646 23.6745 19.2077 23.4385 19.0938 23.2334C18.9798 23.0251 18.8073 22.8623 18.5762 22.7451C18.3451 22.6247 18.0521 22.5645 17.6973 22.5645C17.362 22.5645 17.0853 22.6149 16.8672 22.7158C16.6491 22.8167 16.4863 22.9535 16.3789 23.126C16.2747 23.2985 16.2227 23.4954 16.2227 23.7168C16.2227 23.8665 16.2536 24.0033 16.3154 24.127C16.3805 24.2474 16.4798 24.3597 16.6133 24.4639C16.75 24.568 16.9225 24.6641 17.1309 24.752C17.3424 24.8398 17.5947 24.9245 17.8877 25.0059C18.2913 25.1198 18.6396 25.2467 18.9326 25.3867C19.2256 25.5267 19.4665 25.6846 19.6553 25.8604C19.8473 26.0329 19.9889 26.2298 20.0801 26.4512C20.1745 26.6693 20.2217 26.9167 20.2217 27.1934C20.2217 27.4831 20.1631 27.7451 20.0459 27.9795C19.9287 28.2139 19.7611 28.4141 19.543 28.5801C19.3249 28.7461 19.0628 28.8747 18.7568 28.9658C18.4541 29.0537 18.1156 29.0977 17.7412 29.0977C17.4124 29.0977 17.0885 29.0521 16.7695 28.9609C16.4538 28.8698 16.1657 28.7331 15.9053 28.5508C15.6481 28.3685 15.4414 28.1439 15.2852 27.877C15.1322 27.6068 15.0557 27.2943 15.0557 26.9395H15.9932C15.9932 27.1836 16.0404 27.3936 16.1348 27.5693C16.2292 27.7419 16.3577 27.8851 16.5205 27.999C16.6865 28.113 16.8737 28.1976 17.082 28.2529C17.2936 28.305 17.5133 28.3311 17.7412 28.3311C18.07 28.3311 18.3483 28.2855 18.5762 28.1943C18.804 28.1032 18.9766 27.973 19.0938 27.8037C19.2142 27.6344 19.2744 27.4342 19.2744 27.2031Z" fill="white"/>
</svg>
