<svg width="40" height="40" viewBox="0 0 40 40" fill="none" xmlns="http://www.w3.org/2000/svg">
<path d="M10 0.5H20.5146C21.9733 0.5 23.3719 1.0799 24.4033 2.11133L33.8887 11.5967C34.9201 12.6281 35.5 14.0267 35.5 15.4854V34C35.5 37.0376 33.0376 39.5 30 39.5H10C6.96243 39.5 4.5 37.0376 4.5 34V6C4.5 2.96243 6.96243 0.5 10 0.5Z" fill="white" stroke="#CACFD8"/>
<path d="M23 1V9C23 11.2091 24.7909 13 27 13H35" stroke="#CACFD8"/>
<path d="M0 22C0 19.7909 1.79086 18 4 18H22C24.2091 18 26 19.7909 26 22V30C26 32.2091 24.2091 34 22 34H4C1.79086 34 0 32.2091 0 30V22Z" fill="#006BF7"/>
<path d="M5.74902 29H4.26465L4.27441 28.2334H5.74902C6.25684 28.2334 6.68001 28.1276 7.01855 27.916C7.3571 27.7012 7.611 27.4017 7.78027 27.0176C7.9528 26.6302 8.03906 26.1777 8.03906 25.6602V25.2256C8.03906 24.8187 7.99023 24.4574 7.89258 24.1416C7.79492 23.8226 7.65169 23.554 7.46289 23.3359C7.27409 23.1146 7.04297 22.9469 6.76953 22.833C6.49935 22.7191 6.18848 22.6621 5.83691 22.6621H4.23535V21.8906H5.83691C6.30241 21.8906 6.72721 21.9688 7.11133 22.125C7.49544 22.278 7.82585 22.501 8.10254 22.7939C8.38249 23.0837 8.59733 23.4352 8.74707 23.8486C8.89681 24.2588 8.97168 24.721 8.97168 25.2354V25.6602C8.97168 26.1745 8.89681 26.6383 8.74707 27.0518C8.59733 27.4619 8.38086 27.8118 8.09766 28.1016C7.81771 28.3913 7.47917 28.6143 7.08203 28.7705C6.68815 28.9235 6.24382 29 5.74902 29ZM4.76758 21.8906V29H3.8252V21.8906H4.76758ZM15.8613 25.2207V25.6699C15.8613 26.2038 15.7946 26.6823 15.6611 27.1055C15.5277 27.5286 15.3356 27.8883 15.085 28.1846C14.8343 28.4808 14.5332 28.707 14.1816 28.8633C13.8333 29.0195 13.4427 29.0977 13.0098 29.0977C12.5898 29.0977 12.2041 29.0195 11.8525 28.8633C11.5042 28.707 11.2015 28.4808 10.9443 28.1846C10.6904 27.8883 10.4935 27.5286 10.3535 27.1055C10.2135 26.6823 10.1436 26.2038 10.1436 25.6699V25.2207C10.1436 24.6868 10.2119 24.21 10.3486 23.79C10.4886 23.3669 10.6855 23.0072 10.9395 22.7109C11.1934 22.4115 11.4945 22.1836 11.8428 22.0273C12.1943 21.8711 12.5801 21.793 13 21.793C13.4329 21.793 13.8236 21.8711 14.1719 22.0273C14.5234 22.1836 14.8245 22.4115 15.0752 22.7109C15.3291 23.0072 15.5228 23.3669 15.6562 23.79C15.793 24.21 15.8613 24.6868 15.8613 25.2207ZM14.9287 25.6699V25.2109C14.9287 24.7878 14.8848 24.4134 14.7969 24.0879C14.7122 23.7624 14.5869 23.4889 14.4209 23.2676C14.2549 23.0462 14.0514 22.8786 13.8105 22.7646C13.5729 22.6507 13.3027 22.5938 13 22.5938C12.707 22.5938 12.4417 22.6507 12.2041 22.7646C11.9697 22.8786 11.7679 23.0462 11.5986 23.2676C11.4326 23.4889 11.304 23.7624 11.2129 24.0879C11.1217 24.4134 11.0762 24.7878 11.0762 25.2109V25.6699C11.0762 26.0964 11.1217 26.474 11.2129 26.8027C11.304 27.1283 11.4342 27.4033 11.6035 27.6279C11.776 27.8493 11.9795 28.0169 12.2139 28.1309C12.4515 28.2448 12.7168 28.3018 13.0098 28.3018C13.3158 28.3018 13.5876 28.2448 13.8252 28.1309C14.0628 28.0169 14.263 27.8493 14.4258 27.6279C14.5918 27.4033 14.7171 27.1283 14.8018 26.8027C14.8864 26.474 14.9287 26.0964 14.9287 25.6699ZM21.5645 26.7393H22.502C22.4531 27.1885 22.3245 27.5905 22.1162 27.9453C21.9079 28.3001 21.6133 28.5817 21.2324 28.79C20.8516 28.9951 20.3763 29.0977 19.8066 29.0977C19.39 29.0977 19.0107 29.0195 18.6689 28.8633C18.3304 28.707 18.0391 28.4857 17.7949 28.1992C17.5508 27.9095 17.362 27.5628 17.2285 27.1592C17.0983 26.7523 17.0332 26.2998 17.0332 25.8018V25.0938C17.0332 24.5957 17.0983 24.1449 17.2285 23.7412C17.362 23.3343 17.5524 22.986 17.7998 22.6963C18.0505 22.4066 18.3516 22.1836 18.7031 22.0273C19.0547 21.8711 19.4502 21.793 19.8896 21.793C20.4268 21.793 20.8809 21.8939 21.252 22.0957C21.623 22.2975 21.9111 22.5775 22.1162 22.9355C22.3245 23.2904 22.4531 23.7021 22.502 24.1709H21.5645C21.5189 23.8389 21.4342 23.554 21.3105 23.3164C21.1868 23.0755 21.0111 22.89 20.7832 22.7598C20.5553 22.6296 20.2575 22.5645 19.8896 22.5645C19.5739 22.5645 19.2956 22.6247 19.0547 22.7451C18.8171 22.8656 18.6169 23.0365 18.4541 23.2578C18.2946 23.4792 18.1742 23.7445 18.0928 24.0537C18.0114 24.363 17.9707 24.7064 17.9707 25.084V25.8018C17.9707 26.1501 18.0065 26.4772 18.0781 26.7832C18.153 27.0892 18.2653 27.3577 18.415 27.5889C18.5648 27.82 18.7552 28.0023 18.9863 28.1357C19.2174 28.266 19.4909 28.3311 19.8066 28.3311C20.207 28.3311 20.526 28.2676 20.7637 28.1406C21.0013 28.0137 21.1803 27.8314 21.3008 27.5938C21.4245 27.3561 21.5124 27.0713 21.5645 26.7393Z" fill="white"/>
</svg>
