<svg width="15" height="16" viewBox="0 0 15 16" fill="none" xmlns="http://www.w3.org/2000/svg">
<path d="M9.55756 2.25641C9.55756 1.68996 9.11183 1.23077 8.56198 1.23077H2.98674C2.4369 1.23077 1.99116 1.68996 1.99116 2.25641V14.7692H9.55756V2.25641ZM10.7523 16H0.796464V2.25641C0.796464 1.01023 1.77708 4.56535e-08 2.98674 0H8.56198C9.77164 0 10.7523 1.01023 10.7523 2.25641V16Z" fill="white"/>
<path d="M3.38497 2.66667H8.16375V7.58974H3.38497V2.66667Z" fill="white"/>
<path d="M8.16375 2.05128C8.49366 2.05128 8.7611 2.3268 8.7611 2.66667V7.58974C8.7611 7.92961 8.49366 8.20513 8.16375 8.20513H3.38497C3.05506 8.20513 2.78762 7.92961 2.78762 7.58974V2.66667C2.78762 2.3268 3.05506 2.05128 3.38497 2.05128H8.16375ZM3.98232 6.97436H7.5664V3.28205H3.98232V6.97436Z" fill="white"/>
<path d="M10.9514 14.7692C11.2813 14.7692 11.5487 15.0447 11.5487 15.3846C11.5487 15.7245 11.2813 16 10.9514 16H0.597348C0.267442 16 0 15.7245 0 15.3846C0 15.0447 0.267442 14.7692 0.597348 14.7692H10.9514Z" fill="white"/>
<path d="M11.4159 12.5128V11.6923C11.4159 11.1259 10.9702 10.6667 10.4203 10.6667C10.0904 10.6667 9.82299 10.3911 9.82299 10.0513C9.82299 9.71141 10.0904 9.4359 10.4203 9.4359C11.63 9.4359 12.6106 10.4461 12.6106 11.6923V12.5128C12.6106 12.8527 12.878 13.1282 13.208 13.1282C13.5379 13.1282 13.8053 12.8527 13.8053 12.5128V4.30769C13.8053 3.62564 13.3548 3.03082 12.7125 2.86538L12.6651 2.85337C12.3451 2.77095 12.1504 2.43703 12.2303 2.10737C12.3103 1.77771 12.6344 1.57715 12.9544 1.65945L13.0018 1.67147C14.176 1.97387 15 3.06087 15 4.30769V12.5128C15 13.5324 14.1977 14.359 13.208 14.359C12.2182 14.359 11.4159 13.5324 11.4159 12.5128Z" fill="white"/>
<path d="M12.9425 5.53846H14.4027V8H12.9425V5.53846Z" fill="white"/>
<path d="M14.4025 4.92308C14.7324 4.92308 14.9998 5.19859 14.9998 5.53846V8C14.9998 8.33987 14.7324 8.61539 14.4025 8.61539H12.9425C12.6126 8.61539 12.3452 8.33987 12.3452 8V5.53846C12.3452 5.19859 12.6126 4.92308 12.9425 4.92308H14.4025ZM13.5399 7.38462H13.8051V6.15385H13.5399V7.38462Z" fill="white"/>
</svg>
