<svg width="18" height="17" viewBox="0 0 18 17" fill="none" xmlns="http://www.w3.org/2000/svg">
<path d="M3.5708 14.2871C4.53521 13.8204 5.65279 13.7878 6.64241 14.1982L7.70489 14.6389C8.44228 14.9448 9.29337 14.8854 9.98813 14.482C10.9983 13.8952 12.2372 13.8052 13.3207 14.2546L14.4488 14.7224C15.0316 14.9641 15.6979 14.8852 16.2086 14.5144C16.4737 14.3219 16.8448 14.3812 17.0371 14.6467C17.2293 14.9122 17.1702 15.2838 16.9051 15.4763C16.0606 16.0894 14.9585 16.2193 13.9948 15.8196L12.8667 15.3518C12.1293 15.0459 11.2783 15.1053 10.5835 15.5088C9.57325 16.0955 8.33435 16.1856 7.25086 15.7361L6.18838 15.2954C5.51132 15.0146 4.7464 15.0371 4.08659 15.3564L3.13608 15.8165C2.32437 16.2093 1.38843 16.2571 0.540879 15.9495C0.233097 15.8377 0.0740974 15.4969 0.18569 15.1887C0.297376 14.8805 0.637643 14.7212 0.945486 14.833C1.49248 15.0315 2.09644 15.0007 2.62028 14.7472L3.5708 14.2871Z" fill="white"/>
<path d="M4.59763 10.8578C4.70307 11.2686 4.8691 11.6552 5.08408 12.0083C4.59959 12.0158 4.11765 12.1594 3.69885 12.439L3.12437 12.8225C2.33578 13.3488 1.32592 13.4122 0.47821 12.988C0.185376 12.8413 0.0662977 12.4841 0.212591 12.1908C0.359048 11.8976 0.715048 11.7791 1.00791 11.9256C1.47502 12.1595 2.03191 12.1243 2.4665 11.8343L3.04098 11.4508C3.51776 11.1326 4.05076 10.9353 4.59763 10.8578ZM12.7925 11.0163C12.9135 11.0663 13.0327 11.1233 13.1484 11.1895L14.0866 11.7261C14.6252 12.0343 15.3034 11.9433 15.7421 11.5042C15.9736 11.2723 16.3491 11.2723 16.5806 11.5042C16.8122 11.7361 16.8122 12.112 16.5806 12.3439C15.7638 13.1617 14.5012 13.3314 13.4982 12.7575L12.56 12.2209C12.4743 12.1719 12.3862 12.1296 12.296 12.0949C12.5088 11.7638 12.6773 11.4018 12.7925 11.0163ZM10.8119 10.8872C10.4175 11.6433 9.62871 12.1606 8.71782 12.1606C7.95888 12.1605 7.28533 11.8006 6.85308 11.2436C6.89793 11.2669 6.9433 11.2895 6.98743 11.3148L7.53412 11.6279C8.21483 12.0174 9.06457 11.9505 9.67683 11.4601C10.0184 11.1865 10.4061 10.9957 10.8119 10.8872Z" fill="white"/>
<path d="M8.05699 7.8696V0.743838C8.05699 0.415884 8.32249 0.150024 8.65 0.150024C8.97751 0.150024 9.24301 0.415884 9.24301 0.743838V7.8696C9.24301 8.19755 8.97751 8.46341 8.65 8.46341C8.32249 8.46341 8.05699 8.19755 8.05699 7.8696Z" fill="white"/>
<path d="M10.6267 0.5459H12.2081C12.5356 0.5459 12.8011 0.811759 12.8011 1.13971C12.8011 1.46767 12.5356 1.73353 12.2081 1.73353H10.6267C10.2992 1.73353 10.0337 1.46767 10.0337 1.13971C10.0337 0.811759 10.2992 0.5459 10.6267 0.5459Z" fill="white"/>
<path d="M10.6267 2.92115H12.2081C12.5356 2.92115 12.8011 3.18701 12.8011 3.51497C12.8011 3.84292 12.5356 4.10878 12.2081 4.10878H10.6267C10.2992 4.10878 10.0337 3.84292 10.0337 3.51497C10.0337 3.18701 10.2992 2.92115 10.6267 2.92115Z" fill="white"/>
<path d="M10.6267 5.29641H12.2081C12.5356 5.29641 12.8011 5.56227 12.8011 5.89022C12.8011 6.21818 12.5356 6.48404 12.2081 6.48404H10.6267C10.2992 6.48404 10.0337 6.21818 10.0337 5.89022C10.0337 5.56227 10.2992 5.29641 10.6267 5.29641Z" fill="white"/>
<path d="M10.429 10.2449C10.429 9.26102 9.63251 8.46341 8.65 8.46341C7.66749 8.46341 6.87096 9.26102 6.87096 10.2449C6.87096 11.2287 7.66749 12.0263 8.65 12.0263C9.63251 12.0263 10.429 11.2287 10.429 10.2449ZM11.6151 10.2449C11.6151 11.8846 10.2875 13.2139 8.65 13.2139C7.01247 13.2139 5.68494 11.8846 5.68494 10.2449C5.68494 8.60511 7.01247 7.27579 8.65 7.27579C10.2875 7.27579 11.6151 8.60511 11.6151 10.2449Z" fill="white"/>
<path d="M8.65 8.46341C8.97751 8.46341 9.24301 8.19755 9.24301 7.8696V0.743838C9.24301 0.415884 8.97751 0.150024 8.65 0.150024C8.32249 0.150024 8.05699 0.415884 8.05699 0.743838V7.8696C8.05699 8.19755 8.32249 8.46341 8.65 8.46341ZM8.65 8.46341C9.63251 8.46341 10.429 9.26102 10.429 10.2449C10.429 11.2287 9.63251 12.0263 8.65 12.0263C7.66749 12.0263 6.87096 11.2287 6.87096 10.2449C6.87096 9.26102 7.66749 8.46341 8.65 8.46341ZM3.5708 14.2871C4.53521 13.8204 5.65279 13.7878 6.64241 14.1982L7.70489 14.6389C8.44228 14.9448 9.29337 14.8854 9.98813 14.482C10.9983 13.8952 12.2372 13.8052 13.3207 14.2546L14.4488 14.7224C15.0316 14.9641 15.6979 14.8852 16.2086 14.5144C16.4737 14.3219 16.8448 14.3812 17.0371 14.6467C17.2293 14.9122 17.1702 15.2838 16.9051 15.4763C16.0606 16.0894 14.9585 16.2193 13.9948 15.8196L12.8667 15.3518C12.1293 15.0459 11.2783 15.1053 10.5835 15.5088C9.57325 16.0955 8.33435 16.1856 7.25086 15.7361L6.18838 15.2954C5.51132 15.0146 4.7464 15.0371 4.08659 15.3564L3.13608 15.8165C2.32437 16.2093 1.38843 16.2571 0.540879 15.9495C0.233097 15.8376 0.0740974 15.4969 0.18569 15.1887C0.297376 14.8805 0.637643 14.7212 0.945486 14.833C1.49248 15.0315 2.09644 15.0007 2.62028 14.7472L3.5708 14.2871ZM4.59763 10.8578C4.70307 11.2686 4.8691 11.6552 5.08408 12.0083C4.59959 12.0158 4.11765 12.1594 3.69885 12.439L3.12437 12.8225C2.33578 13.3488 1.32592 13.4122 0.47821 12.988C0.185376 12.8413 0.0662977 12.4841 0.212591 12.1908C0.359048 11.8976 0.715048 11.7791 1.00791 11.9256C1.47502 12.1595 2.03191 12.1243 2.4665 11.8343L3.04098 11.4508C3.51776 11.1326 4.05076 10.9353 4.59763 10.8578ZM12.7925 11.0163C12.9135 11.0663 13.0327 11.1233 13.1484 11.1895L14.0866 11.7261C14.6252 12.0343 15.3034 11.9433 15.7421 11.5042C15.9736 11.2723 16.3491 11.2723 16.5806 11.5042C16.8122 11.7361 16.8122 12.112 16.5806 12.3439C15.7638 13.1617 14.5012 13.3314 13.4982 12.7575L12.56 12.2209C12.4743 12.1719 12.3862 12.1296 12.296 12.0949C12.5088 11.7638 12.6773 11.4018 12.7925 11.0163ZM10.8119 10.8872C10.4175 11.6433 9.62871 12.1606 8.71782 12.1606C7.95888 12.1605 7.28533 11.8006 6.85308 11.2436C6.89793 11.2669 6.9433 11.2895 6.98743 11.3148L7.53412 11.6279C8.21483 12.0174 9.06457 11.9505 9.67683 11.4601C10.0184 11.1865 10.4061 10.9957 10.8119 10.8872ZM10.6267 0.5459H12.2081C12.5356 0.5459 12.8011 0.81176 12.8011 1.13971C12.8011 1.46767 12.5356 1.73353 12.2081 1.73353H10.6267C10.2992 1.73353 10.0337 1.46767 10.0337 1.13971C10.0337 0.81176 10.2992 0.5459 10.6267 0.5459ZM10.6267 2.92115H12.2081C12.5356 2.92115 12.8011 3.18701 12.8011 3.51497C12.8011 3.84292 12.5356 4.10878 12.2081 4.10878H10.6267C10.2992 4.10878 10.0337 3.84292 10.0337 3.51497C10.0337 3.18701 10.2992 2.92115 10.6267 2.92115ZM10.6267 5.29641H12.2081C12.5356 5.29641 12.8011 5.56227 12.8011 5.89022C12.8011 6.21818 12.5356 6.48404 12.2081 6.48404H10.6267C10.2992 6.48404 10.0337 6.21818 10.0337 5.89022C10.0337 5.56227 10.2992 5.29641 10.6267 5.29641ZM11.6151 10.2449C11.6151 11.8846 10.2875 13.2139 8.65 13.2139C7.01247 13.2139 5.68494 11.8846 5.68494 10.2449C5.68494 8.60511 7.01247 7.27579 8.65 7.27579C10.2875 7.27579 11.6151 8.60511 11.6151 10.2449Z" stroke="white" stroke-width="0.3" stroke-linejoin="round"/>
</svg>
