<svg width="121" height="121" viewBox="0 0 121 121" fill="none" xmlns="http://www.w3.org/2000/svg">
<g clip-path="url(#clip0_1522_16748)">
<path d="M0.5 27.1667C0.5 20.0942 3.30951 13.3115 8.31048 8.31048C13.3115 3.30951 20.0942 0.5 27.1667 0.5H93.8333C100.906 0.5 107.689 3.30951 112.69 8.31048C117.69 13.3115 120.5 20.0942 120.5 27.1667V93.8333C120.5 100.906 117.69 107.689 112.69 112.69C107.689 117.69 100.906 120.5 93.8333 120.5H27.1667C20.0942 120.5 13.3115 117.69 8.31048 112.69C3.30951 107.689 0.5 100.906 0.5 93.8333V27.1667Z" fill="#202834"/>
<path d="M67.7198 38.2626C67.3719 38.2377 67.0239 38.2253 66.6883 38.2129C70.8143 40.0646 72.5791 42.053 72.3678 45.7316C72.3305 46.2536 72.2435 46.7756 72.1068 47.2851C70.4664 55.3382 64.2774 62.0865 55.5158 67.5422C54.5589 68.1512 53.5647 68.7353 52.5332 69.307L66.6759 69.2324C70.6279 69.22 73.4241 68.9341 76.3198 67.1445C81.4649 64.1743 83.851 62.0865 86.8833 57.3391C88.5238 54.866 89.4559 51.7342 89.7168 47.7946C83.7516 41.1334 78.6438 38.884 67.7198 38.2626Z" fill="url(#paint0_linear_1522_16748)"/>
<path d="M89.2574 38.125C88.9964 36.8947 88.6236 35.6892 88.1513 34.521C87.4554 32.8308 86.5482 31.2401 85.467 29.7736C83.404 27.0146 80.7693 24.7404 77.7369 23.1123C72.654 20.428 69.1743 20.4901 65.7194 20.5025H32.0031C31.9285 25.9583 33.2086 28.4935 36.5516 32.5698C40.603 36.5591 43.2128 37.69 48.2833 38.212H66.5645C66.9622 38.2244 67.335 38.2493 67.7202 38.2741C78.6442 38.8955 83.752 41.1574 89.7172 47.8062C89.7545 43.0836 89.8415 41.7539 89.2574 38.125Z" fill="url(#paint1_linear_1522_16748)"/>
<path d="M72.0935 47.2705C69.4216 50.3277 66.0164 51.4338 65.0594 51.4338H43.5844C42.528 51.4835 42.0931 51.5332 41.6581 51.6699C34.537 53.6459 32.3498 57.3991 32.1758 65.0421V83.2735C33.0706 92.6937 36.4385 95.2289 44.591 99.3425C46.741 100.299 47.9092 100.523 49.9101 100.498V69.2924H52.5323C53.5514 68.7207 54.5456 68.1366 55.515 67.5276C64.2641 62.0595 70.4655 55.3236 72.0935 47.2705Z" fill="url(#paint2_linear_1522_16748)"/>
</g>
<defs>
<linearGradient id="paint0_linear_1522_16748" x1="81.0534" y1="42.2683" x2="59.3609" y2="70.806" gradientUnits="userSpaceOnUse">
<stop stop-color="#006BF7"/>
<stop offset="1" stop-color="#94C1FF"/>
</linearGradient>
<linearGradient id="paint1_linear_1522_16748" x1="33.4146" y1="21.9461" x2="90.889" y2="38.7993" gradientUnits="userSpaceOnUse">
<stop stop-color="#006BF7"/>
<stop offset="1" stop-color="#94C1FF"/>
</linearGradient>
<linearGradient id="paint2_linear_1522_16748" x1="60.6513" y1="49.5929" x2="32.3025" y2="93.5857" gradientUnits="userSpaceOnUse">
<stop stop-color="#006BF7"/>
<stop offset="1" stop-color="#94C1FF"/>
</linearGradient>
<clipPath id="clip0_1522_16748">
<rect width="120" height="120" fill="white" transform="translate(0.5 0.5)"/>
</clipPath>
</defs>
</svg>
